<?xml version="1.0" encoding="UTF-8"?>
<svg version="1.1" xmlns="http://www.w3.org/2000/svg" width="512" height="512">
<path d="M0 0 C1.21726776 -0.00525696 2.43453552 -0.01051392 3.68869019 -0.01593018 C7.00702891 -0.02682642 10.32480205 -0.02433629 13.64310837 -0.01479292 C17.12804634 -0.00715769 20.61296139 -0.0142526 24.09790039 -0.01895142 C29.94844869 -0.02439778 35.79888309 -0.01724687 41.64941406 -0.00292969 C48.39779698 0.01339476 55.14590791 0.00810545 61.89428425 -0.0084089 C67.70516176 -0.0220558 73.51595775 -0.02392784 79.32684612 -0.0160929 C82.79005575 -0.01143392 86.25313785 -0.01074227 89.71633911 -0.02070236 C93.5792281 -0.03103743 97.44181639 -0.0166824 101.3046875 0 C103.00998123 -0.00910904 103.00998123 -0.00910904 104.74972534 -0.0184021 C112.38729198 0.04257242 118.33812056 0.73731861 124.48828125 5.65649414 C125.74511719 6.9526062 125.74511719 6.9526062 127.02734375 8.27490234 C127.94902344 9.21269531 128.87070313 10.15048828 129.8203125 11.11669922 C130.76460722 12.10275516 131.70861424 13.08908669 132.65234375 14.07568359 C133.62642231 15.07488398 134.60167409 16.07294205 135.578125 17.06982422 C137.94795674 19.49831516 140.30528555 21.93770973 142.65234375 24.38818359 C148.29790942 19.67994045 153.42534304 14.65664969 158.49023438 9.33544922 C162.79193584 4.92871176 166.50845094 1.85625696 172.80078125 0.91943359 C180.10597535 0.84868111 185.13699681 1.38134382 190.65234375 6.38818359 C195.36132822 11.10897003 196.82503755 14.93848409 197.02734375 21.57568359 C197.07632812 22.66236328 197.1253125 23.74904297 197.17578125 24.86865234 C195.92876065 33.25346998 189.3110224 39.18602161 183.53515625 44.93896484 C182.75977509 45.71958786 181.98439392 46.50021088 181.18551636 47.30448914 C179.55371717 48.942678 177.91807833 50.5770503 176.27880859 52.20776367 C173.77949958 54.69853513 171.29946768 57.20744835 168.8203125 59.71826172 C167.22639191 61.31379391 165.63137635 62.90823315 164.03515625 64.50146484 C163.29951447 65.24834061 162.56387268 65.99521637 161.80593872 66.76472473 C156.26385168 72.23297065 151.31940733 75.81364115 143.21484375 75.82568359 C142.34988281 75.84501953 141.48492187 75.86435547 140.59375 75.88427734 C127.18174667 73.62222632 119.7239219 61.45976174 110.65234375 52.38818359 C110.32234375 70.53818359 109.99234375 88.68818359 109.65234375 107.38818359 C117.24234375 107.38818359 124.83234375 107.38818359 132.65234375 107.38818359 C145.42577972 111.22021438 154.35711969 116.32135614 160.96484375 128.20068359 C165.828011 139.36466457 164.89167437 151.66912058 164.77734375 163.57568359 C164.76729288 165.40445473 164.75817076 167.23323122 164.75 169.06201172 C164.72815564 173.50420315 164.69374217 177.94613312 164.65234375 182.38818359 C165.26207031 182.68595703 165.87179688 182.98373047 166.5 183.29052734 C172.8049961 186.50596093 175.77630345 191.10514172 178.65234375 197.38818359 C179.93589133 201.73977823 179.83626691 205.94743813 179.83984375 210.45068359 C179.85208984 211.26601563 179.86433594 212.08134766 179.87695312 212.92138672 C179.87888672 213.70578125 179.88082031 214.49017578 179.8828125 215.29833984 C179.88692139 216.01127197 179.89103027 216.7242041 179.89526367 217.45874023 C179.65234375 219.38818359 179.65234375 219.38818359 177.65234375 222.38818359 C175.00233459 222.78259277 175.00233459 222.78259277 171.59790039 222.80810547 C170.3264064 222.82401733 169.05491241 222.8399292 167.74488831 222.85632324 C166.35075943 222.85759043 164.9566292 222.85776741 163.5625 222.85693359 C162.13764646 222.86403143 160.7127958 222.87172987 159.28794861 222.88000488 C156.29938821 222.89346555 153.31109203 222.89501166 150.32250977 222.88916016 C146.49077073 222.88326408 142.66029883 222.91384176 138.82880497 222.95427704 C135.88538269 222.98011683 132.94226695 222.98303492 129.99874687 222.97938538 C128.58611301 222.98108035 127.17346556 222.9907593 125.76094246 223.00852966 C123.7861452 223.03063776 121.81105002 223.01783529 119.83618164 223.00341797 C118.14979332 223.00649963 118.14979332 223.00649963 116.42933655 223.00964355 C113.65234375 222.38818359 113.65234375 222.38818359 111.78713989 220.2122345 C110.53832637 217.10444022 110.28954484 214.92895322 110.31176758 211.58813477 C110.31199417 210.44732956 110.31222076 209.30652435 110.31245422 208.13114929 C110.32793808 206.9101503 110.34342194 205.68915131 110.359375 204.43115234 C110.36361984 203.17305252 110.36786469 201.9149527 110.37223816 200.61872864 C110.38616756 197.28616224 110.4130861 193.95421952 110.4463501 190.62182617 C110.47712822 187.21652695 110.49092472 183.81116121 110.50585938 180.40576172 C110.53636627 173.73288595 110.59509282 167.06109796 110.65234375 160.38818359 C98.44234375 160.38818359 86.23234375 160.38818359 73.65234375 160.38818359 C73.60227317 172.14990095 73.58598126 183.91033794 73.6289978 195.67209053 C73.64762568 201.13372961 73.651505 206.59454634 73.62158203 212.05615234 C73.59324272 217.32803535 73.60377137 222.59854511 73.6411438 227.87035751 C73.64858493 229.8805602 73.64206843 231.89086502 73.62130737 233.90097427 C73.5945863 236.72002883 73.61769113 239.53463902 73.65234375 242.35351562 C73.62322655 243.59753395 73.62322655 243.59753395 73.59352112 244.86668396 C73.68418706 248.48153844 73.82943532 250.55452303 76.43531799 253.19445419 C78.56032746 254.81618002 78.56032746 254.81618002 80.75782776 256.15756035 C83.18841616 257.73640085 84.3105274 259.43633998 85.58984375 262.01318359 C85.97011719 262.74794922 86.35039062 263.48271484 86.7421875 264.23974609 C89.0349327 269.65180557 88.72897159 274.56446753 88.65234375 280.38818359 C92.28234375 280.38818359 95.91234375 280.38818359 99.65234375 280.38818359 C99.66692627 279.36982422 99.68150879 278.35146484 99.6965332 277.30224609 C99.75488804 273.49249688 99.83211553 269.68331593 99.91479492 265.87402344 C99.94787053 264.23121423 99.97595552 262.58829612 99.9987793 260.9453125 C100.0326478 258.5716346 100.0849745 256.19893919 100.140625 253.82568359 C100.15020988 252.73924561 100.15020988 252.73924561 100.1599884 251.63085938 C100.31778379 246.04961537 101.1969117 240.18640183 104.99751282 235.85522461 C110.0661793 231.40874744 114.53253382 230.13696785 121.1550293 230.14526367 C122.44954514 230.14218704 123.74406097 230.13911041 125.07780457 230.13594055 C126.48155903 230.14283695 127.88531172 230.15010382 129.2890625 230.15771484 C130.7344407 230.15890772 132.17981969 230.15935958 133.62519836 230.15910339 C136.64707322 230.16066417 139.66882893 230.16892495 142.69067383 230.18237305 C146.56791461 230.19940802 150.44502518 230.20318585 154.322299 230.20242786 C157.3033625 230.2026994 160.28439742 230.20817717 163.26545143 230.21542931 C164.69562374 230.21861469 166.12579929 230.22058308 167.55597496 230.22132301 C169.5499424 230.22348534 171.54389776 230.23302071 173.5378418 230.24291992 C174.67303757 230.24673172 175.80823334 230.25054352 176.97782898 230.25447083 C179.65234375 230.38818359 179.65234375 230.38818359 181.65234375 231.38818359 C181.63139648 230.27894531 181.61044922 229.16970703 181.58886719 228.02685547 C181.51605908 223.88213181 181.4703968 219.73746383 181.43261719 215.59228516 C181.41259416 213.80377675 181.38536721 212.01533305 181.35058594 210.22705078 C181.3016542 207.64518197 181.2792821 205.0641841 181.26171875 202.48193359 C181.24107361 201.69202026 181.22042847 200.90210693 181.19915771 200.08825684 C181.1969003 194.40828826 182.48786049 190.13794942 185.65234375 185.38818359 C190.37631109 180.89465369 193.85002308 180.26285583 200.23510742 180.2746582 C200.8987883 180.27451218 201.56246918 180.27436615 202.2462616 180.2742157 C204.43764527 180.27491178 206.6289437 180.2826899 208.8203125 180.29052734 C210.34060113 180.29239261 211.86089036 180.293816 213.38117981 180.29481506 C217.38098818 180.29863172 221.38076019 180.30845474 225.3805542 180.31951904 C229.46268217 180.32975146 233.54481602 180.33431661 237.62695312 180.33935547 C245.63543334 180.35007777 253.64388402 180.36714398 261.65234375 180.38818359 C261.66692627 179.6319873 261.68150879 178.87579102 261.6965332 178.09667969 C261.77126375 174.65168082 261.86784303 171.20762439 261.96484375 167.76318359 C261.98740234 166.57337891 262.00996094 165.38357422 262.03320312 164.15771484 C262.26755953 156.53047918 262.96975475 151.66690348 267.90234375 145.63818359 C274.76993516 140.01924517 283.43290912 141.08157594 291.87109375 141.08740234 C293.25679654 141.08350893 294.64249815 141.07917294 296.02819824 141.07441711 C298.92297243 141.06698364 301.81762458 141.06722573 304.71240234 141.07250977 C308.40765241 141.07830855 312.10240192 141.06135009 315.79756927 141.03816509 C318.65617758 141.02338107 321.5146665 141.02256222 324.37330627 141.02567482 C326.39338389 141.02491742 328.41344309 141.01108835 330.43347168 140.99699402 C338.61210327 141.0381373 344.11605488 141.32339991 350.46484375 146.82568359 C354.63368819 151.70918708 354.94420087 155.4799339 354.91976929 161.80123901 C354.9243004 162.65796931 354.92883151 163.51469961 354.93349993 164.39739144 C354.9461777 167.27312021 354.94452139 170.14866041 354.94287109 173.02441406 C354.94885422 175.08421066 354.95565926 177.144005 354.96322632 179.20379639 C354.9809151 184.80296933 354.9855829 190.40208117 354.98685789 196.00127935 C354.98875568 200.67333821 354.9961118 205.34538278 355.00320208 210.01743615 C355.01949444 221.03897519 355.02437024 232.06048155 355.02294922 243.08203125 C355.02174743 254.45645207 355.04285489 265.83068325 355.07443655 277.20505607 C355.10057538 286.9665176 355.11131752 296.72791711 355.1100384 306.48941338 C355.10952808 312.32131686 355.11525002 318.15305184 355.1363945 323.9849205 C355.15573659 329.46952244 355.15592884 334.95379443 355.14136124 340.4384079 C355.13926707 342.45159257 355.14401009 344.46479767 355.15608215 346.47794724 C355.17149448 349.22607457 355.16225313 351.97305857 355.14682007 354.72116089 C355.15710719 355.5180545 355.16739432 356.31494812 355.17799318 357.13599002 C355.11342601 362.33776411 354.04722847 365.23820425 350.65234375 369.38818359 C345.83885567 373.73206308 342.57392951 374.51232958 336.18066406 374.54931641 C335.52822723 374.55428131 334.87579041 374.55924622 334.20358276 374.56436157 C332.04586732 374.57896106 329.88822547 374.58578247 327.73046875 374.59130859 C326.22694904 374.59706312 324.72342935 374.60282082 323.21990967 374.60858154 C320.06587381 374.6190861 316.91186339 374.62493191 313.7578125 374.62841797 C309.72843441 374.63389294 305.69939589 374.65790162 301.67012405 374.68638992 C298.56275472 374.70507432 295.4554661 374.71022504 292.34804535 374.71175385 C290.86337178 374.71476927 289.37869925 374.72276011 287.89408112 374.73593903 C285.8096639 374.75311726 283.72606208 374.75109102 281.64160156 374.74462891 C280.45818176 374.74827454 279.27476196 374.75192017 278.05548096 374.75567627 C274.65234375 374.38818359 274.65234375 374.38818359 271.09051514 372.67840576 C267.70415916 370.95564105 267.70415916 370.95564105 264.64259338 372.67642212 C263.655811 373.24130341 262.66902863 373.80618469 261.65234375 374.38818359 C258.38291931 374.76913452 258.38291931 374.76913452 254.80834961 374.77636719 C254.15226212 374.78162415 253.49617462 374.7868811 252.82020569 374.79229736 C250.66895167 374.80541457 248.51844798 374.79679055 246.3671875 374.78662109 C244.86316283 374.78864398 243.35913912 374.79155722 241.8551178 374.7953186 C238.7105267 374.7997305 235.56619205 374.79334684 232.42163086 374.77929688 C228.39768829 374.76219061 224.37434545 374.77206204 220.35042477 374.79001427 C217.24739588 374.80087037 214.14450851 374.7973977 211.0414753 374.78963089 C209.55795787 374.78763469 208.07442746 374.79006776 206.59092522 374.79706955 C204.5159197 374.80471616 202.4418774 374.7930373 200.36694336 374.77636719 C199.18813095 374.77398041 198.00931854 374.77159363 196.79478455 374.76913452 C193.34459119 374.35087545 191.54520449 373.22668008 188.65234375 371.38818359 C185.95193985 372.03481927 185.95193985 372.03481927 183.65234375 373.38818359 C180.82854975 374.80008059 178.45225097 374.53108045 175.29418945 374.54931641 C174.64189865 374.55428131 173.98960785 374.55924622 173.31755066 374.56436157 C171.15439809 374.57899312 168.99131898 374.58578857 166.828125 374.59130859 C165.32317605 374.59706145 163.81822711 374.60281917 162.3132782 374.60858154 C159.15326598 374.61909587 155.99327921 374.62493497 152.83325195 374.62841797 C148.79599807 374.63388837 144.7590839 374.65788301 140.72193623 374.68638992 C137.61027569 374.70507667 134.49869576 374.71022521 131.38698387 374.71175385 C129.89951925 374.71476985 128.41205569 374.72276269 126.92464638 374.73593903 C124.83533108 374.75311849 122.74682923 374.75109046 120.6574707 374.74462891 C119.4710347 374.74827454 118.28459869 374.75192017 117.06221008 374.75567627 C113.65234375 374.38818359 113.65234375 374.38818359 110.08952332 372.67840576 C106.70392149 370.95566709 106.70392149 370.95566709 103.64160156 372.67642212 C102.65514648 373.24130341 101.66869141 373.80618469 100.65234375 374.38818359 C97.38964844 374.76913452 97.38964844 374.76913452 93.82421875 374.77636719 C92.84249695 374.78425262 92.84249695 374.78425262 91.84094238 374.79229736 C89.69449436 374.80541615 87.54879828 374.79678896 85.40234375 374.78662109 C83.90071471 374.78864418 82.39908663 374.79155758 80.89746094 374.7953186 C77.75706589 374.79973093 74.6169276 374.79334637 71.4765625 374.77929688 C67.46168579 374.76220537 63.44741082 374.77205245 59.43255615 374.79001427 C56.33377593 374.80088181 53.23513714 374.79739222 50.13635254 374.78963089 C48.65645272 374.78763708 47.17653984 374.79005926 45.69665527 374.79706955 C43.62424966 374.80473345 41.55280336 374.7930127 39.48046875 374.77636719 C37.71558105 374.77278702 37.71558105 374.77278702 35.91503906 374.76913452 C31.5945966 374.26468148 28.20373054 372.83639026 25.0078125 369.85302734 C21.70175707 365.52972409 20.5271925 363.52629387 20.52929592 358.12891197 C20.52730487 357.0067599 20.52531382 355.88460782 20.52326244 354.72845113 C20.52617528 353.48528241 20.52908812 352.24211369 20.53208923 350.96127319 C20.53123481 349.64874404 20.53038038 348.33621488 20.52950007 346.98391211 C20.5272554 343.32851469 20.53127602 339.67314636 20.53627813 336.01775265 C20.54058283 332.08046403 20.53913619 328.14317715 20.53837585 324.20588684 C20.53785063 317.380198 20.54099725 310.55451869 20.54661369 303.72883224 C20.55472893 293.85994584 20.55734394 283.99106407 20.55860168 274.1221747 C20.56079217 258.11188338 20.56745215 242.10159715 20.5769043 226.09130859 C20.58607851 210.53564479 20.5931593 194.97998237 20.59741211 179.42431641 C20.59767483 178.46601627 20.59793756 177.50771614 20.59820824 176.52037661 C20.59951325 171.71303101 20.60077696 166.90568541 20.60202014 162.0983398 C20.61239264 122.19495083 20.63001086 82.29156755 20.65234375 42.38818359 C17.30303087 42.39767921 13.95745069 42.46717196 10.60913086 42.546875 C9.66876732 42.54881363 8.72840378 42.55075226 7.75954437 42.55274963 C-0.1207918 42.78746432 -3.99725036 45.25316988 -9.49108887 50.65234375 C-9.91877563 51.16845215 -10.3464624 51.68456055 -10.78710938 52.21630859 C-11.28090088 52.79832031 -11.77469238 53.38033203 -12.28344727 53.97998047 C-12.77901123 54.5684375 -13.2745752 55.15689453 -13.78515625 55.76318359 C-15.35358297 57.52013128 -16.9367853 59.26235233 -18.52638245 61.00015259 C-19.49843367 62.07335833 -20.45587718 63.1600628 -21.3948822 64.26229858 C-26.16798285 69.75067769 -31.405624 71.99398037 -38.47265625 72.70068359 C-44.44762702 72.21883111 -49.95060124 70.79007137 -54.28515625 66.44677734 C-57.84302781 61.80272865 -59.50176086 58.11133269 -59.66015625 52.20068359 C-59.69753906 51.29962891 -59.73492187 50.39857422 -59.7734375 49.47021484 C-58.62406695 41.15045924 -53.29469233 35.72945186 -47.58203125 30.05615234 C-46.45368866 28.91851189 -46.45368866 28.91851189 -45.30255127 27.75788879 C-43.71728099 26.1655482 -42.12690845 24.57827261 -40.53173828 22.99584961 C-38.10310176 20.58109797 -35.6994531 18.14328471 -33.296875 15.70263672 C-31.74754565 14.15235623 -30.1968103 12.60347933 -28.64453125 11.05615234 C-27.57691559 9.96864937 -27.57691559 9.96864937 -26.48773193 8.85917664 C-25.45691498 7.84715935 -25.45691498 7.84715935 -24.40527344 6.81469727 C-23.81333191 6.2237175 -23.22139038 5.63273773 -22.61151123 5.02384949 C-15.54011951 -0.08532683 -8.40556224 -0.04489936 0 0 Z " fill="#010101" transform="translate(64.34765625,110.61181640625)"/>
<path d="M0 0 C1.15037498 -0.0099852 1.15037498 -0.0099852 2.32398987 -0.02017212 C3.94716999 -0.03030365 5.57039181 -0.03498898 7.19360352 -0.03466797 C9.67859463 -0.03903996 12.1618079 -0.07534726 14.64648438 -0.11328125 C16.22265017 -0.11914957 17.79882441 -0.12311886 19.375 -0.125 C20.11882431 -0.13937103 20.86264862 -0.15374207 21.62901306 -0.16854858 C26.75670315 -0.1230875 26.75670315 -0.1230875 29.16796875 2.10302734 C30.2162883 4.25858728 30.94241781 6.1972422 31.5078125 8.5234375 C33.55057001 17.33737491 33.55057001 17.33737491 38.65625 24.44140625 C43.49388312 26.4564805 47.15620653 26.60399031 52.25390625 25.3359375 C55.25673384 23.88229596 58.14983017 22.34252687 61.04296875 20.6875 C65.30010166 18.39952548 67.62931178 18.02682375 72.25390625 19.3359375 C74.9387207 21.38964844 74.9387207 21.38964844 77.6171875 24.0703125 C78.33336494 24.78287201 78.33336494 24.78287201 79.06401062 25.50982666 C80.06576434 26.5125558 81.06135959 27.52147137 82.05102539 28.53613281 C83.56372987 30.08320033 85.09904156 31.60477782 86.63867188 33.125 C87.61211713 34.10534302 88.58417169 35.08706932 89.5546875 36.0703125 C90.43294189 36.95944336 91.31119629 37.84857422 92.21606445 38.76464844 C94.36540711 41.47662602 95.11097702 42.90459777 95.25390625 46.3359375 C94.6171875 48.36889648 94.6171875 48.36889648 93.56640625 50.33203125 C93.19773437 51.05583984 92.8290625 51.77964844 92.44921875 52.52539062 C91.6539625 54.02104412 90.85709316 55.51584107 90.05859375 57.00976562 C87.7389424 61.57201698 86.64241836 64.23960706 88.25390625 69.3359375 C88.38466553 69.99924072 88.5154248 70.66254395 88.65014648 71.34594727 C89.51000849 74.7428124 90.27111826 76.74207871 93.34033203 78.59667969 C95.97271071 79.62547244 98.59522598 80.44816798 101.31640625 81.2109375 C103.14198519 81.76638231 104.96627694 82.32608075 106.7890625 82.890625 C107.59738525 83.12249512 108.40570801 83.35436523 109.23852539 83.59326172 C111.25390625 84.3359375 111.25390625 84.3359375 113.25390625 86.3359375 C113.46584183 88.95357745 113.55788815 91.46278455 113.5546875 94.08203125 C113.55897263 94.84894791 113.56325775 95.61586456 113.56767273 96.40602112 C113.57341948 98.02921562 113.57391374 99.65243588 113.56958008 101.27563477 C113.56642285 103.76037544 113.58986379 106.24392252 113.61523438 108.72851562 C113.61750761 110.304686 113.61821075 111.88085957 113.6171875 113.45703125 C113.62639725 114.20085556 113.63560699 114.94467987 113.64509583 115.71104431 C113.59925882 120.81844283 113.59925882 120.81844283 111.99121094 123.22802734 C110.05402792 124.46340347 108.28035243 125.23131276 106.09375 125.94140625 C105.30033203 126.20244141 104.50691406 126.46347656 103.68945312 126.73242188 C102.86509766 126.99345703 102.04074219 127.25449219 101.19140625 127.5234375 C100.36318359 127.79607422 99.53496094 128.06871094 98.68164062 128.34960938 C92.56335174 130.3359375 92.56335174 130.3359375 90.25390625 130.3359375 C90.09921875 131.3259375 90.09921875 131.3259375 89.94140625 132.3359375 C89.25390625 135.3359375 89.25390625 135.3359375 88.39868164 137.09106445 C87.00398651 139.9960331 85.98244212 142.18800882 86.74291992 145.40380859 C87.71683438 147.53107634 88.80452834 149.51486391 90.00390625 151.5234375 C95.2766296 160.8649457 95.2766296 160.8649457 95.25390625 164.3359375 C92.21639599 170.31683799 87.11261322 174.91651622 82.44140625 179.6484375 C81.65958984 180.47150391 80.87777344 181.29457031 80.07226562 182.14257812 C76.71908386 185.54058104 74.21125033 187.98924068 69.68359375 189.62890625 C65.14323302 189.24106222 62.08405844 187.60263887 58.19140625 185.3359375 C53.05219971 182.24605685 53.05219971 182.24605685 47.2578125 181.3984375 C46.26652344 181.7078125 45.27523437 182.0171875 44.25390625 182.3359375 C43.58327148 182.47322266 42.91263672 182.61050781 42.22167969 182.75195312 C39.90198787 183.35229404 38.2309509 183.97343101 36.25390625 185.3359375 C34.50329659 188.34250005 33.73968837 191.4676374 32.94140625 194.8359375 C32.49519905 196.55683978 32.04106932 198.27571201 31.578125 199.9921875 C31.39338623 200.75337891 31.20864746 201.51457031 31.01831055 202.29882812 C30.06617431 204.83623624 29.5534565 205.84862708 27.25390625 207.3359375 C24.45401496 207.59753072 21.88162696 207.68498088 19.0859375 207.62890625 C18.29112473 207.62466141 17.49631195 207.62041656 16.67741394 207.61604309 C14.14006604 207.5992568 11.60351387 207.56160574 9.06640625 207.5234375 C7.3457146 207.50839055 5.62501049 207.49470216 3.90429688 207.48242188 C-0.31280637 207.44935357 -4.52931517 207.39757245 -8.74609375 207.3359375 C-11.37080139 202.46832644 -13.2065217 198.01362129 -14.43359375 192.5859375 C-15.71379478 188.02506541 -15.71379478 188.02506541 -18.82421875 184.6484375 C-21.14322329 183.60411758 -23.2656482 182.88807715 -25.74609375 182.3359375 C-26.50277344 182.06265625 -27.25945312 181.789375 -28.0390625 181.5078125 C-32.84344968 181.20277204 -36.63007058 184.18423033 -40.6875 186.53125 C-41.36425781 186.89992187 -42.04101562 187.26859375 -42.73828125 187.6484375 C-43.3401123 187.99519531 -43.94194336 188.34195313 -44.56201172 188.69921875 C-47.94328385 189.68495067 -50.35160381 189.18542493 -53.74609375 188.3359375 C-56.56030273 186.2980957 -56.56030273 186.2980957 -59.2421875 183.63671875 C-59.72059586 183.16405075 -60.19900421 182.69138275 -60.69190979 182.20439148 C-61.6931846 181.20717793 -62.68700959 180.20243323 -63.67358398 179.19067383 C-65.18336129 177.64867492 -66.72262087 176.14142424 -68.26757812 174.63476562 C-69.24021139 173.65816851 -70.21098231 172.67971232 -71.1796875 171.69921875 C-72.05681396 170.81532471 -72.93394043 169.93143066 -73.83764648 169.02075195 C-76.13826391 165.78423029 -76.27744902 164.22698745 -75.74609375 160.3359375 C-74.99584961 158.28125 -74.99584961 158.28125 -73.9609375 156.4609375 C-73.59548828 155.78546875 -73.23003906 155.11 -72.85351562 154.4140625 C-72.07262584 153.0269728 -71.28876095 151.64155386 -70.50195312 150.2578125 C-68.78654463 147.07595744 -67.74522921 144.99990182 -67.75 141.3359375 C-68.07871094 140.3459375 -68.40742188 139.3559375 -68.74609375 138.3359375 C-69.05015137 137.34098267 -69.05015137 137.34098267 -69.36035156 136.32592773 C-70.64418182 132.97383303 -71.78039145 130.90025292 -74.93115234 129.05908203 C-77.57231123 128.02095915 -80.20569278 127.17975748 -82.93359375 126.3984375 C-84.76087368 125.82828553 -86.58772168 125.25674679 -88.4140625 124.68359375 C-89.22125732 124.44648682 -90.02845215 124.20937988 -90.86010742 123.96508789 C-92.74609375 123.3359375 -92.74609375 123.3359375 -93.74609375 122.3359375 C-93.87187728 119.70477481 -93.93474319 117.1012783 -93.94921875 114.46875 C-93.95491882 113.67822235 -93.9606189 112.8876947 -93.9664917 112.07321167 C-93.97595583 110.39696599 -93.98248127 108.72070158 -93.98632812 107.04443359 C-93.99602732 104.47851067 -94.02703369 101.91339073 -94.05859375 99.34765625 C-94.06512418 97.72135894 -94.07037449 96.09505588 -94.07421875 94.46875 C-94.08656555 93.69991486 -94.09891235 92.93107971 -94.1116333 92.13894653 C-94.08957056 86.86572954 -94.08957056 86.86572954 -92.49487305 84.40600586 C-90.47416608 83.16954647 -88.74808091 82.60856452 -86.4375 82.08203125 C-77.14397818 80.11054215 -77.14397818 80.11054215 -69.5703125 74.93359375 C-67.57746474 70.11452553 -67.48566182 66.40325773 -68.74609375 61.3359375 C-70.44361011 57.9816126 -72.33606586 54.78950576 -74.25 51.5546875 C-75.86179766 48.08700795 -76.25389429 46.10517864 -75.74609375 42.3359375 C-74.70703125 40.4921875 -74.70703125 40.4921875 -73.12109375 38.8359375 C-72.49332031 38.17335937 -71.86554688 37.51078125 -71.21875 36.828125 C-70.40277344 36.00570312 -69.58679688 35.18328125 -68.74609375 34.3359375 C-67.59867951 33.15131167 -66.45156881 31.96639179 -65.3046875 30.78125 C-64.0575293 29.50630452 -62.80881656 28.23287794 -61.55859375 26.9609375 C-60.95257324 26.34154297 -60.34655273 25.72214844 -59.72216797 25.08398438 C-58.8464917 24.20709961 -58.8464917 24.20709961 -57.953125 23.3125 C-57.43210205 22.78736816 -56.9110791 22.26223633 -56.37426758 21.72119141 C-53.61494906 19.37355709 -51.62957346 18.30224548 -47.98046875 18.44140625 C-44.59423355 19.37793748 -42.05057836 20.72046343 -39.03564453 22.47265625 C-32.68814292 26.30423803 -32.68814292 26.30423803 -25.55078125 26.97265625 C-23.10841992 25.93661085 -20.98013206 24.7549833 -18.74609375 23.3359375 C-18.08609375 23.3359375 -17.42609375 23.3359375 -16.74609375 23.3359375 C-16.5759375 22.65789063 -16.40578125 21.97984375 -16.23046875 21.28125 C-10.69740262 0.03192155 -10.69740262 0.03192155 0 0 Z " fill="#F62073" transform="translate(393.74609375,26.6640625)"/>
<path d="M0 0 C1.22807373 -0.01260864 2.45614746 -0.02521729 3.72143555 -0.03820801 C5.0577858 -0.03104814 6.3941308 -0.02284414 7.73046875 -0.01367188 C9.1052274 -0.01636764 10.47998419 -0.02025077 11.85473633 -0.02526855 C14.73309519 -0.0311598 17.61095684 -0.02261364 20.48925781 -0.00390625 C24.17500891 0.01888424 27.85959497 0.00575899 31.54530334 -0.01819611 C34.38326768 -0.03266486 37.22095673 -0.02804341 40.05892944 -0.01768494 C41.41767516 -0.01502057 42.77644603 -0.01827728 44.13516235 -0.02760315 C46.03541574 -0.03778428 47.93575699 -0.01950917 49.8359375 0 C51.45665161 0.00477356 51.45665161 0.00477356 53.11010742 0.00964355 C56.75179653 0.66841533 57.70516161 1.55990977 59.91796875 4.51757812 C60.31077103 7.38128414 60.45864987 9.86027225 60.42590332 12.72303772 C60.43214328 13.5573834 60.43838325 14.39172909 60.4448123 15.25135797 C60.46078681 18.05140306 60.44812083 20.85058299 60.43554688 23.65063477 C60.44096597 25.65618905 60.44808743 27.66173936 60.45678711 29.6672821 C60.4750474 35.11758505 60.467942 40.56758569 60.45527077 46.01789403 C60.44515855 51.71534252 60.45453136 57.41276475 60.46081543 63.11021423 C60.46809642 72.67777159 60.45849161 82.24520551 60.43945312 91.81274414 C60.41767737 102.88391412 60.42473914 113.95478954 60.44675875 125.0259524 C60.46489242 134.52241768 60.4674812 144.01879413 60.45700407 153.51527113 C60.45075876 159.19112348 60.44996211 164.86683722 60.46315002 170.54268074 C60.47467854 175.87710597 60.4667377 181.2111502 60.443573 186.54553413 C60.43827011 188.5067532 60.43982651 190.46800416 60.44862366 192.42921066 C60.45950042 195.09961189 60.44591172 197.76878023 60.42590332 200.43910217 C60.43482621 201.22138862 60.44374909 202.00367507 60.45294237 202.80966717 C60.3767181 208.02807994 60.3767181 208.02807994 58.06171417 210.49825287 C55.20997327 211.85422149 52.99257665 211.9058459 49.8359375 211.92163086 C48.60786377 211.93431503 47.37979004 211.94699921 46.11450195 211.96006775 C44.77815584 211.95801638 43.44181088 211.95502841 42.10546875 211.95117188 C40.73071027 211.95573443 39.35595406 211.96104023 37.98120117 211.96705627 C35.10293295 211.97598248 32.22494228 211.97356964 29.34667969 211.96362305 C25.66097024 211.95212619 21.97621787 211.97235669 18.29063416 212.00154018 C15.45269707 212.01989817 12.61498962 212.01961079 9.77700806 212.01390266 C8.41825008 212.01374944 7.05947656 212.01979511 5.70077515 212.03219414 C3.80057031 212.04709373 1.90020781 212.03380233 0 212.01928711 C-1.62071411 212.01903786 -1.62071411 212.01903786 -3.27416992 212.01878357 C-6.75354465 211.39771246 -7.92945827 210.26592347 -10.08203125 207.51757812 C-10.62792969 205.22753906 -10.62792969 205.22753906 -10.69140625 202.75195312 C-10.72363281 201.8625 -10.75585938 200.97304688 -10.7890625 200.05664062 C-10.80324219 199.13625 -10.81742187 198.21585938 -10.83203125 197.26757812 C-10.86167969 196.33171875 -10.89132812 195.39585937 -10.921875 194.43164062 C-10.99242929 192.1268672 -11.04519377 189.82309645 -11.08203125 187.51757812 C-12.40203125 186.85757813 -13.72203125 186.19757813 -15.08203125 185.51757812 C-15.19816329 182.41372602 -15.26925154 179.31043151 -15.33203125 176.20507812 C-15.36554688 175.32400391 -15.3990625 174.44292969 -15.43359375 173.53515625 C-15.44648438 172.68759766 -15.459375 171.84003906 -15.47265625 170.96679688 C-15.50407715 169.79636841 -15.50407715 169.79636841 -15.53613281 168.60229492 C-15.08203125 166.51757812 -15.08203125 166.51757812 -13.09082031 165.03833008 C-10.8743455 163.69714863 -10.8743455 163.69714863 -10.56445312 161.296875 C-10.55994141 160.45189453 -10.55542969 159.60691406 -10.55078125 158.73632812 C-10.545625 157.81207031 -10.54046875 156.8878125 -10.53515625 155.93554688 C-10.550625 154.97261719 -10.56609375 154.0096875 -10.58203125 153.01757812 C-10.5665625 152.05464844 -10.55109375 151.09171875 -10.53515625 150.09960938 C-10.5403125 149.17535156 -10.54546875 148.25109375 -10.55078125 147.29882812 C-10.55754883 146.03135742 -10.55754883 146.03135742 -10.56445312 144.73828125 C-11.25295432 141.78422139 -12.70643724 141.28238 -15.08203125 139.51757812 C-15.53613281 137.43286133 -15.53613281 137.43286133 -15.47265625 135.06835938 C-15.45976562 134.22080078 -15.446875 133.37324219 -15.43359375 132.5 C-15.40007812 131.61892578 -15.3665625 130.73785156 -15.33203125 129.83007812 C-15.31398438 128.93740234 -15.2959375 128.04472656 -15.27734375 127.125 C-15.23020884 124.92144309 -15.16443782 122.72005211 -15.08203125 120.51757812 C-13.10203125 120.02257812 -13.10203125 120.02257812 -11.08203125 119.51757812 C-11.08056469 118.92858608 -11.07909813 118.33959404 -11.07758713 117.73275375 C-11.04053848 103.40250334 -10.98154974 89.07246758 -10.89812851 74.74241257 C-10.85831582 67.81248332 -10.82593478 60.882668 -10.81103516 53.95263672 C-10.79664138 47.26758183 -10.76155611 40.58293088 -10.71372223 33.89801788 C-10.69885895 31.34471958 -10.69098742 28.7913709 -10.6901474 26.23802948 C-10.68779096 22.66774134 -10.66081622 19.09843927 -10.62792969 15.52832031 C-10.63296005 14.46736649 -10.63799042 13.40641266 -10.64317322 12.31330872 C-10.54228339 5.25660729 -10.54228339 5.25660729 -8.42803955 1.86175537 C-5.43648056 0.14770111 -3.44655816 0.0101513 0 0 Z " fill="#F82073" transform="translate(348.08203125,262.482421875)"/>
<path d="M0 0 C1.27141846 -0.00938095 2.54283691 -0.0187619 3.8527832 -0.02842712 C5.24170605 -0.01794911 6.63062242 -0.00658014 8.01953125 0.00561523 C9.44295322 0.00546027 10.86637563 0.00397179 12.28979492 0.00120544 C15.272488 -0.00017913 18.25470055 0.01238831 21.23730469 0.03515625 C25.06091032 0.06354181 28.88371748 0.06080472 32.7073822 0.04806614 C35.64651308 0.04111167 38.58545934 0.04889544 41.52456665 0.06132317 C42.93436983 0.06583998 44.34419282 0.06617245 45.7539978 0.06225777 C47.72405256 0.05934819 49.69410363 0.07800316 51.6640625 0.09765625 C52.78530518 0.10305923 53.90654785 0.10846222 55.06176758 0.11402893 C57.83203125 0.50170898 57.83203125 0.50170898 59.69546509 1.57835388 C61.46937367 4.58025227 61.19551532 7.21839827 61.18505859 10.67944336 C61.18721878 11.40658035 61.18937897 12.13371735 61.19160461 12.88288879 C61.19469146 14.46089223 61.19108603 16.03891969 61.18159103 17.61689758 C61.16787018 20.11339419 61.17427855 22.60909438 61.18643188 25.10559082 C61.21742462 32.20268965 61.21248707 39.29960398 61.19238281 46.39672852 C61.18148191 50.73812718 61.19461833 55.07892691 61.22227859 59.42024231 C61.22772864 61.07566452 61.22363103 62.73114631 61.20988083 64.38652039 C61.19088819 66.69967241 61.2021943 69.01085782 61.22021484 71.32397461 C61.21782806 72.6406311 61.21544128 73.9572876 61.21298218 75.31384277 C61.49244444 78.68972175 61.49244444 78.68972175 64.33479309 80.32002258 C65.15888168 80.7099791 65.98297028 81.09993561 66.83203125 81.50170898 C67.3996582 83.58642578 67.3996582 83.58642578 67.3203125 85.95092773 C67.29614258 87.22226562 67.29614258 87.22226562 67.27148438 88.51928711 C67.22958984 89.40036133 67.18769531 90.28143555 67.14453125 91.18920898 C67.12197266 92.08188477 67.09941406 92.97456055 67.07617188 93.89428711 C67.01723699 96.09845171 66.93503943 98.2992357 66.83203125 100.50170898 C67.79109375 100.96577148 67.79109375 100.96577148 68.76953125 101.43920898 C70.83203125 102.50170898 70.83203125 102.50170898 71.83203125 103.50170898 C72.11090146 106.95209404 72.06381904 110.41638937 72.08203125 113.87670898 C72.10265625 114.84866211 72.12328125 115.82061523 72.14453125 116.82202148 C72.15226562 118.22194336 72.15226562 118.22194336 72.16015625 119.65014648 C72.16950195 120.50785645 72.17884766 121.36556641 72.18847656 122.24926758 C71.75706457 124.9754368 71.02124647 125.8687916 68.83203125 127.50170898 C68.17203125 127.50170898 67.51203125 127.50170898 66.83203125 127.50170898 C66.85821533 128.06156494 66.88439941 128.6214209 66.91137695 129.19824219 C67.01535456 131.73661193 67.08035175 134.27453452 67.14453125 136.81420898 C67.18642578 137.6952832 67.22832031 138.57635742 67.27148438 139.48413086 C67.31775892 141.91817204 67.32388645 144.11562573 66.83203125 146.50170898 C66.01347656 146.99026367 65.19492187 147.47881836 64.3515625 147.98217773 C63.52011719 148.48362305 62.68867188 148.98506836 61.83203125 149.50170898 C61.08921846 152.81320097 61.17845213 156.11984688 61.20703125 159.50170898 C61.20703125 161.31425575 61.19454283 163.12685703 61.16796875 164.93920898 C61.1736084 165.74229492 61.17924805 166.54538086 61.18505859 167.37280273 C60.72760604 170.1314378 60.06259803 170.8291826 57.83203125 172.50170898 C55.10646057 172.88938904 55.10646057 172.88938904 51.77172852 172.90576172 C49.8994735 172.92478798 49.8994735 172.92478798 47.98939514 172.94419861 C46.62574091 172.94214708 45.26208782 172.93915899 43.8984375 172.93530273 C42.49982957 172.93986374 41.10122388 172.94516907 39.70262146 172.95118713 C36.77130022 172.96012282 33.84025133 172.95769047 30.90893555 172.94775391 C27.1548222 172.93626753 23.40164994 172.95646677 19.64766026 172.98567104 C16.75910991 173.0040304 13.87078515 173.00374116 10.98219109 172.99803352 C9.59831358 172.99788025 8.21442083 173.00392968 6.83059883 173.016325 C4.89436127 173.03122377 2.95796899 173.01793364 1.02172852 173.00341797 C-0.07952866 173.0032518 -1.18078583 173.00308563 -2.31541443 173.00291443 C-5.94725773 172.36478473 -6.92064331 171.39562044 -9.16796875 168.50170898 C-9.66854 165.45944214 -9.66854 165.45944214 -9.66917419 161.8215332 C-9.67470859 161.15123518 -9.68024299 160.48093716 -9.68594509 159.79032707 C-9.69955351 157.54530584 -9.68458277 155.30139605 -9.66967773 153.05639648 C-9.67346087 151.44654874 -9.67896087 149.83670425 -9.68605042 148.22686768 C-9.70002309 143.85493639 -9.68882267 139.48339785 -9.6723392 135.11148834 C-9.65849854 130.53827091 -9.66494766 125.96507651 -9.66847229 121.3918457 C-9.67117519 113.71160546 -9.65769194 106.03152143 -9.63452148 98.35131836 C-9.60791122 89.46940599 -9.60616434 80.58775484 -9.61790985 71.70581627 C-9.62868564 63.16494781 -9.62250213 54.62417393 -9.60835457 46.08331299 C-9.60259303 42.44701911 -9.60267876 38.81079441 -9.60741997 35.17449951 C-9.61218909 30.8931537 -9.60209087 26.61209425 -9.58046532 22.33080292 C-9.57489638 20.75863358 -9.57443314 19.18643674 -9.57941818 17.61426544 C-9.58536551 15.46981981 -9.57287781 13.32625132 -9.5556488 11.18188477 C-9.55321891 9.98137482 -9.55078901 8.78086487 -9.54828548 7.54397583 C-8.75224873 1.17624068 -6.05678204 0.00089762 0 0 Z " fill="#24D0AE" transform="translate(266.16796875,301.498291015625)"/>
<path d="M0 0 C1.03046448 -0.00571014 2.06092896 -0.01142029 3.12261963 -0.01730347 C4.25771469 -0.01842133 5.39280975 -0.01953918 6.56230164 -0.02069092 C7.7542514 -0.02565582 8.94620117 -0.03062073 10.17427063 -0.03573608 C13.44918264 -0.04785765 16.72405893 -0.05530641 19.99898934 -0.05974674 C22.04500559 -0.06267687 24.09101622 -0.06678159 26.13702965 -0.07125092 C32.53839127 -0.08492838 38.93974007 -0.09459344 45.3411153 -0.09845281 C52.73064201 -0.10293233 60.11998364 -0.12047412 67.50945407 -0.1494534 C73.22078178 -0.17107386 78.93205744 -0.1811573 84.64342564 -0.18249393 C88.05467699 -0.18354184 91.4657544 -0.1894462 94.87696266 -0.20731354 C98.68367731 -0.22433131 102.48993959 -0.22250387 106.29667664 -0.21600342 C107.42569901 -0.2252182 108.55472137 -0.23443298 109.71795654 -0.243927 C110.75688049 -0.23835785 111.79580444 -0.2327887 112.86621094 -0.22705078 C113.76604863 -0.22851734 114.66588633 -0.2299839 115.59299183 -0.2314949 C121.12264758 0.58123382 124.5790962 4.36379532 128.35404968 8.21075439 C128.83054459 8.69245087 129.30703949 9.17414734 129.79797363 9.67044067 C131.30722521 11.1973855 132.80956047 12.73089715 134.31108093 14.26544189 C135.82420092 15.80620426 137.3387765 17.34546364 138.85632324 18.88186646 C140.2262997 20.269656 141.59144618 21.66220856 142.9563446 23.05499268 C145.45964321 25.46382186 146.46599171 26.04426032 149.88774109 26.54473877 C154.25030935 25.9996646 156.09270999 23.79634969 158.89701843 20.67169189 C159.9801429 19.53217042 161.06348295 18.39285381 162.14701843 17.25372314 C163.82749318 15.44900523 165.50075253 13.63807663 167.16850281 11.82159424 C168.78991877 10.06697007 170.43548113 8.33782145 172.08451843 6.60919189 C172.57125031 6.06234741 173.05798218 5.51550293 173.5594635 4.9520874 C176.34299597 2.05287824 178.36273376 0.7874543 182.31742859 0.68145752 C186.57571703 1.19496504 188.17178656 2.09919921 191.12358093 5.14044189 C192.75381908 8.40091818 192.59093444 10.51845225 192.12358093 14.14044189 C190.78712463 16.01191711 190.78712463 16.01191711 189.0254364 17.92584229 C188.06924408 18.97326096 188.06924408 18.97326096 187.09373474 20.0418396 C186.44358398 20.73437836 185.79343323 21.42691711 185.12358093 22.14044189 C184.55383545 22.75346161 183.98408997 23.36648132 183.39707947 23.99807739 C179.74479284 27.88818147 176.01148142 31.69980747 172.27250671 35.50640869 C170.91868391 36.89207654 169.57298984 38.2857313 168.23539734 39.68707275 C166.282335 41.73151341 164.3041352 43.74838736 162.31889343 45.76153564 C161.731091 46.3874913 161.14328857 47.01344696 160.53767395 47.65837097 C156.66007315 51.51835215 153.63072006 53.0688923 148.1085968 53.29954529 C145.41584871 53.0837156 144.22362782 52.45787456 142.35014343 50.51153564 C141.69948914 49.86297607 141.04883484 49.2144165 140.37846375 48.54620361 C139.63435242 47.75230225 138.89024109 46.95840088 138.12358093 46.14044189 C137.1685578 45.16305853 136.21102808 44.1881205 135.25151062 43.21514893 C133.10349735 41.02909205 130.96176823 38.83719823 128.82670593 36.63848877 C128.00589539 35.79338745 128.00589539 35.79338745 127.16850281 34.93121338 C126.04722198 33.77075329 124.93040687 32.60596296 123.81791687 31.43707275 C122.19133768 29.73182645 120.54630761 28.04635059 118.89701843 26.36309814 C118.4062381 25.83821304 117.91545776 25.31332794 117.4098053 24.77253723 C114.85702633 22.19994469 113.47462429 21.18183435 109.82524109 20.75152588 C107.21195938 20.85235028 107.21195938 20.85235028 106.12358093 22.14044189 C105.99873939 24.48197031 105.93758802 26.79551775 105.91825867 29.13873291 C105.90835907 29.87039673 105.89845947 30.60206055 105.88825989 31.355896 C105.8565571 33.78534662 105.831853 36.21481683 105.80717468 38.64434814 C105.78661272 40.32444276 105.76561646 42.00453212 105.74420166 43.68461609 C105.68890268 48.11511993 105.63952806 52.54567105 105.59135437 56.97625732 C105.53238372 62.28765812 105.46611287 67.59897216 105.40105438 72.91030121 C105.30294644 80.98696196 105.21415787 89.06367734 105.12358093 97.14044189 C83.01358093 97.14044189 60.90358093 97.14044189 38.12358093 97.14044189 C38.07459656 91.82177002 38.02561218 86.50309814 37.97514343 81.02325439 C37.93977076 77.65995374 37.90381867 74.29667946 37.86576843 70.93341064 C37.80538831 65.59148877 37.74719061 60.24960391 37.70170593 54.90753174 C37.66491387 50.60211909 37.61857093 46.2969068 37.56551743 41.99166489 C37.54694102 40.34661233 37.53184514 38.70151678 37.52023697 37.0564003 C37.50342966 34.7575439 37.47440914 32.45914966 37.44242859 30.16046143 C37.42910492 28.8503006 37.41578125 27.54013977 37.40205383 26.1902771 C37.44163816 23.03191193 37.44163816 23.03191193 35.12358093 21.14044189 C24.41110971 18.73530892 8.9647497 16.77705708 -1.00941467 22.32739258 C-9.22920987 28.08806383 -15.95582413 35.98524529 -22.17498779 43.79771423 C-26.33358561 49.00138133 -26.33358561 49.00138133 -29.87641907 50.14044189 C-33.87664594 49.99757665 -36.11974636 49.75772753 -39.25141907 47.20294189 C-41.11116302 44.84249764 -41.81277757 43.47455976 -42.37641907 40.51544189 C-41.03445631 31.45719328 -28.83150735 22.94410592 -22.49531555 16.62896729 C-20.54760104 14.68666925 -18.60535976 12.73901049 -16.66352844 10.79083252 C-15.42621923 9.55418314 -14.18860038 8.31784347 -12.95063782 7.08184814 C-12.37045395 6.49964005 -11.79027008 5.91743195 -11.19250488 5.31758118 C-7.23321698 1.38149795 -5.52960505 0.01830265 0 0 Z " fill="#FBB23A" transform="translate(57.87641906738281,121.85955810546875)"/>
<path d="M0 0 C1.80723793 -0.0238678 1.80723793 -0.0238678 3.65098572 -0.04821777 C4.94895584 -0.04841919 6.24692596 -0.04862061 7.58422852 -0.04882812 C8.93417171 -0.05593238 10.28411189 -0.06363177 11.63404846 -0.07189941 C14.46103309 -0.08533417 17.28773851 -0.08691769 20.11474609 -0.08105469 C23.73102803 -0.07515902 27.34596716 -0.10574612 30.9619894 -0.14617157 C33.74936595 -0.17206818 36.53641996 -0.17492435 39.32390022 -0.17127991 C41.3031209 -0.17378869 43.28227339 -0.19847322 45.26133728 -0.22351074 C47.07330345 -0.20955261 47.07330345 -0.20955261 48.921875 -0.1953125 C50.51261086 -0.19839417 50.51261086 -0.19839417 52.13548279 -0.20153809 C56.28585329 0.69090256 57.61771578 1.91467875 60.02563477 5.41992188 C60.74840804 9.0478648 60.69852106 12.60787287 60.65673828 16.29711914 C60.66389359 17.39357758 60.67104889 18.49003601 60.67842102 19.61972046 C60.69532352 23.24234738 60.67589595 26.86373968 60.65454102 30.48632812 C60.6553695 33.0030884 60.65782811 35.51984863 60.66184998 38.03660583 C60.66470897 43.30993981 60.65052436 48.58295354 60.62255859 53.85620117 C60.5904913 59.94975941 60.59052978 66.04267778 60.60777336 72.13628155 C60.62364426 78.00378256 60.61680486 83.87104765 60.59983635 89.73853874 C60.5946474 92.23325004 60.59514494 94.72797977 60.6013813 97.22268867 C60.60682091 100.70623785 60.58649733 104.1886944 60.55908203 107.67211914 C60.56560791 108.70651627 60.57213379 109.74091339 60.57885742 110.80665588 C60.48669749 117.68053971 60.48669749 117.68053971 58.37915039 121.06030273 C55.35113475 122.80957857 53.33117025 122.92110347 49.8359375 122.92163086 C48.58461533 122.93101181 47.33329315 122.94039276 46.04405212 122.95005798 C44.68243728 122.93958076 43.32082905 122.9282119 41.95922852 122.91601562 C40.55965602 122.91617064 39.16008308 122.91765997 37.76051331 122.92042542 C34.83087125 122.92180855 31.90171929 122.90926514 28.97216797 122.88647461 C25.21696801 122.85806316 21.46258056 122.86083515 17.70732021 122.87356472 C14.81880246 122.88051854 11.9304726 122.87273662 9.04197884 122.86030769 C7.65729556 122.8557921 6.27259213 122.85545736 4.88790703 122.85937309 C2.95388338 122.8622827 1.01986348 122.84362758 -0.9140625 122.82397461 C-2.01452408 122.81857162 -3.11498566 122.81316864 -4.24879456 122.80760193 C-7.4036648 122.35885911 -8.07709571 121.90353558 -9.97436523 119.41992188 C-10.35468197 117.24754333 -10.35468197 117.24754333 -10.36204529 114.67553711 C-10.37194992 113.69970673 -10.38185455 112.72387634 -10.39205933 111.71847534 C-10.38755768 110.64928864 -10.38305603 109.58010193 -10.37841797 108.47851562 C-10.38528122 107.35148224 -10.39214447 106.22444885 -10.3992157 105.06326294 C-10.41755747 101.32785541 -10.41363585 97.59286488 -10.40795898 93.85742188 C-10.41251694 91.26814638 -10.41782134 88.67887211 -10.42384338 86.08959961 C-10.43278882 80.65896111 -10.43056745 75.22848359 -10.42041016 69.79785156 C-10.40892422 63.51803604 -10.42301073 57.23864734 -10.44980663 50.95888805 C-10.47461314 44.91948841 -10.47714574 38.88030885 -10.47068977 32.84085083 C-10.470536 30.2699411 -10.47662653 27.69902336 -10.48898125 25.12814331 C-10.50379957 21.53887842 -10.49328097 17.95056259 -10.47607422 14.36132812 C-10.48574219 13.29214142 -10.49541016 12.22295471 -10.50537109 11.12136841 C-10.49553696 10.14553802 -10.48570282 9.16970764 -10.47557068 8.16430664 C-10.47536139 7.31554459 -10.47515211 6.46678253 -10.47493649 5.59230042 C-9.97436523 3.41992188 -9.97436523 3.41992188 -8.11573792 1.6480484 C-5.29040112 0.02765271 -3.24985256 0.02581981 0 0 Z " fill="#7474FC" transform="translate(186.974365234375,351.580078125)"/>
<path d="M0 0 C1.15037498 -0.0099852 1.15037498 -0.0099852 2.32398987 -0.02017212 C3.94716999 -0.03030365 5.57039181 -0.03498898 7.19360352 -0.03466797 C9.67859463 -0.03903996 12.1618079 -0.07534726 14.64648438 -0.11328125 C16.22265017 -0.11914957 17.79882441 -0.12311886 19.375 -0.125 C20.11882431 -0.13937103 20.86264862 -0.15374207 21.62901306 -0.16854858 C26.75670315 -0.1230875 26.75670315 -0.1230875 29.16796875 2.10302734 C30.2162883 4.25858728 30.94241781 6.1972422 31.5078125 8.5234375 C33.55057001 17.33737491 33.55057001 17.33737491 38.65625 24.44140625 C43.49388312 26.4564805 47.15620653 26.60399031 52.25390625 25.3359375 C55.25673384 23.88229596 58.14983017 22.34252687 61.04296875 20.6875 C65.30010166 18.39952548 67.62931178 18.02682375 72.25390625 19.3359375 C74.9387207 21.38964844 74.9387207 21.38964844 77.6171875 24.0703125 C78.33336494 24.78287201 78.33336494 24.78287201 79.06401062 25.50982666 C80.06576434 26.5125558 81.06135959 27.52147137 82.05102539 28.53613281 C83.56372987 30.08320033 85.09904156 31.60477782 86.63867188 33.125 C87.61211713 34.10534302 88.58417169 35.08706932 89.5546875 36.0703125 C90.43294189 36.95944336 91.31119629 37.84857422 92.21606445 38.76464844 C94.36540711 41.47662602 95.11097702 42.90459777 95.25390625 46.3359375 C94.6171875 48.36889648 94.6171875 48.36889648 93.56640625 50.33203125 C93.19773437 51.05583984 92.8290625 51.77964844 92.44921875 52.52539062 C91.6539625 54.02104412 90.85709316 55.51584107 90.05859375 57.00976562 C87.7389424 61.57201698 86.64241836 64.23960706 88.25390625 69.3359375 C88.38466553 69.99924072 88.5154248 70.66254395 88.65014648 71.34594727 C89.51000849 74.7428124 90.27111826 76.74207871 93.34033203 78.59667969 C95.97271071 79.62547244 98.59522598 80.44816798 101.31640625 81.2109375 C103.14198519 81.76638231 104.96627694 82.32608075 106.7890625 82.890625 C107.59738525 83.12249512 108.40570801 83.35436523 109.23852539 83.59326172 C111.25390625 84.3359375 111.25390625 84.3359375 113.25390625 86.3359375 C113.46584183 88.95357745 113.55788815 91.46278455 113.5546875 94.08203125 C113.55897263 94.84894791 113.56325775 95.61586456 113.56767273 96.40602112 C113.57341948 98.02921562 113.57391374 99.65243588 113.56958008 101.27563477 C113.56642285 103.76037544 113.58986379 106.24392252 113.61523438 108.72851562 C113.61750761 110.304686 113.61821075 111.88085957 113.6171875 113.45703125 C113.62639725 114.20085556 113.63560699 114.94467987 113.64509583 115.71104431 C113.59925882 120.81844283 113.59925882 120.81844283 111.99121094 123.22802734 C110.05402792 124.46340347 108.28035243 125.23131276 106.09375 125.94140625 C105.30033203 126.20244141 104.50691406 126.46347656 103.68945312 126.73242188 C102.86509766 126.99345703 102.04074219 127.25449219 101.19140625 127.5234375 C100.36318359 127.79607422 99.53496094 128.06871094 98.68164062 128.34960938 C92.56335174 130.3359375 92.56335174 130.3359375 90.25390625 130.3359375 C90.09921875 131.3259375 90.09921875 131.3259375 89.94140625 132.3359375 C89.25390625 135.3359375 89.25390625 135.3359375 88.39868164 137.09106445 C87.00398651 139.9960331 85.98244212 142.18800882 86.74291992 145.40380859 C87.71683438 147.53107634 88.80452834 149.51486391 90.00390625 151.5234375 C95.2766296 160.8649457 95.2766296 160.8649457 95.25390625 164.3359375 C92.21639599 170.31683799 87.11261322 174.91651622 82.44140625 179.6484375 C81.65958984 180.47150391 80.87777344 181.29457031 80.07226562 182.14257812 C76.71908386 185.54058104 74.21125033 187.98924068 69.68359375 189.62890625 C65.14323302 189.24106222 62.08405844 187.60263887 58.19140625 185.3359375 C53.05219971 182.24605685 53.05219971 182.24605685 47.2578125 181.3984375 C46.26652344 181.7078125 45.27523437 182.0171875 44.25390625 182.3359375 C43.58327148 182.47322266 42.91263672 182.61050781 42.22167969 182.75195312 C39.90198787 183.35229404 38.2309509 183.97343101 36.25390625 185.3359375 C34.50329659 188.34250005 33.73968837 191.4676374 32.94140625 194.8359375 C32.49519905 196.55683978 32.04106932 198.27571201 31.578125 199.9921875 C31.39338623 200.75337891 31.20864746 201.51457031 31.01831055 202.29882812 C30.06617431 204.83623624 29.5534565 205.84862708 27.25390625 207.3359375 C24.45401496 207.59753072 21.88162696 207.68498088 19.0859375 207.62890625 C18.29112473 207.62466141 17.49631195 207.62041656 16.67741394 207.61604309 C14.14006604 207.5992568 11.60351387 207.56160574 9.06640625 207.5234375 C7.3457146 207.50839055 5.62501049 207.49470216 3.90429688 207.48242188 C-0.31280637 207.44935357 -4.52931517 207.39757245 -8.74609375 207.3359375 C-11.37080139 202.46832644 -13.2065217 198.01362129 -14.43359375 192.5859375 C-15.71379478 188.02506541 -15.71379478 188.02506541 -18.82421875 184.6484375 C-21.14322329 183.60411758 -23.2656482 182.88807715 -25.74609375 182.3359375 C-26.50277344 182.06265625 -27.25945312 181.789375 -28.0390625 181.5078125 C-32.84344968 181.20277204 -36.63007058 184.18423033 -40.6875 186.53125 C-41.36425781 186.89992187 -42.04101562 187.26859375 -42.73828125 187.6484375 C-43.3401123 187.99519531 -43.94194336 188.34195313 -44.56201172 188.69921875 C-47.94328385 189.68495067 -50.35160381 189.18542493 -53.74609375 188.3359375 C-56.56030273 186.2980957 -56.56030273 186.2980957 -59.2421875 183.63671875 C-59.72059586 183.16405075 -60.19900421 182.69138275 -60.69190979 182.20439148 C-61.6931846 181.20717793 -62.68700959 180.20243323 -63.67358398 179.19067383 C-65.18336129 177.64867492 -66.72262087 176.14142424 -68.26757812 174.63476562 C-69.24021139 173.65816851 -70.21098231 172.67971232 -71.1796875 171.69921875 C-72.05681396 170.81532471 -72.93394043 169.93143066 -73.83764648 169.02075195 C-76.13826391 165.78423029 -76.27744902 164.22698745 -75.74609375 160.3359375 C-74.99584961 158.28125 -74.99584961 158.28125 -73.9609375 156.4609375 C-73.59548828 155.78546875 -73.23003906 155.11 -72.85351562 154.4140625 C-72.07262584 153.0269728 -71.28876095 151.64155386 -70.50195312 150.2578125 C-68.78654463 147.07595744 -67.74522921 144.99990182 -67.75 141.3359375 C-68.07871094 140.3459375 -68.40742188 139.3559375 -68.74609375 138.3359375 C-69.05015137 137.34098267 -69.05015137 137.34098267 -69.36035156 136.32592773 C-70.64418182 132.97383303 -71.78039145 130.90025292 -74.93115234 129.05908203 C-77.57231123 128.02095915 -80.20569278 127.17975748 -82.93359375 126.3984375 C-84.76087368 125.82828553 -86.58772168 125.25674679 -88.4140625 124.68359375 C-89.22125732 124.44648682 -90.02845215 124.20937988 -90.86010742 123.96508789 C-92.74609375 123.3359375 -92.74609375 123.3359375 -93.74609375 122.3359375 C-93.87187728 119.70477481 -93.93474319 117.1012783 -93.94921875 114.46875 C-93.95491882 113.67822235 -93.9606189 112.8876947 -93.9664917 112.07321167 C-93.97595583 110.39696599 -93.98248127 108.72070158 -93.98632812 107.04443359 C-93.99602732 104.47851067 -94.02703369 101.91339073 -94.05859375 99.34765625 C-94.06512418 97.72135894 -94.07037449 96.09505588 -94.07421875 94.46875 C-94.08656555 93.69991486 -94.09891235 92.93107971 -94.1116333 92.13894653 C-94.08957056 86.86572954 -94.08957056 86.86572954 -92.49487305 84.40600586 C-90.47416608 83.16954647 -88.74808091 82.60856452 -86.4375 82.08203125 C-77.14397818 80.11054215 -77.14397818 80.11054215 -69.5703125 74.93359375 C-67.57746474 70.11452553 -67.48566182 66.40325773 -68.74609375 61.3359375 C-70.44361011 57.9816126 -72.33606586 54.78950576 -74.25 51.5546875 C-75.86179766 48.08700795 -76.25389429 46.10517864 -75.74609375 42.3359375 C-74.70703125 40.4921875 -74.70703125 40.4921875 -73.12109375 38.8359375 C-72.49332031 38.17335937 -71.86554688 37.51078125 -71.21875 36.828125 C-70.40277344 36.00570312 -69.58679688 35.18328125 -68.74609375 34.3359375 C-67.59867951 33.15131167 -66.45156881 31.96639179 -65.3046875 30.78125 C-64.0575293 29.50630452 -62.80881656 28.23287794 -61.55859375 26.9609375 C-60.95257324 26.34154297 -60.34655273 25.72214844 -59.72216797 25.08398438 C-58.8464917 24.20709961 -58.8464917 24.20709961 -57.953125 23.3125 C-57.43210205 22.78736816 -56.9110791 22.26223633 -56.37426758 21.72119141 C-53.61494906 19.37355709 -51.62957346 18.30224548 -47.98046875 18.44140625 C-44.59423355 19.37793748 -42.05057836 20.72046343 -39.03564453 22.47265625 C-32.68814292 26.30423803 -32.68814292 26.30423803 -25.55078125 26.97265625 C-23.10841992 25.93661085 -20.98013206 24.7549833 -18.74609375 23.3359375 C-18.08609375 23.3359375 -17.42609375 23.3359375 -16.74609375 23.3359375 C-16.5759375 22.65789063 -16.40578125 21.97984375 -16.23046875 21.28125 C-10.69740262 0.03192155 -10.69740262 0.03192155 0 0 Z M-1.74609375 11.3359375 C-1.88072021 11.89055664 -2.01534668 12.44517578 -2.15405273 13.01660156 C-2.7924465 15.55109635 -3.48708916 18.06682117 -4.18359375 20.5859375 C-4.39435547 21.45863281 -4.60511719 22.33132812 -4.82226562 23.23046875 C-6.63808238 29.57372193 -6.63808238 29.57372193 -9.81445312 31.75878906 C-12.09732548 32.7682673 -14.36905261 33.57918051 -16.74609375 34.3359375 C-17.60460937 34.75359375 -18.463125 35.17125 -19.34765625 35.6015625 C-20.01539063 35.92640625 -20.683125 36.25125 -21.37109375 36.5859375 C-22.04398438 36.92109375 -22.716875 37.25625 -23.41015625 37.6015625 C-28.2172213 39.11281372 -31.76756813 38.77060218 -36.3515625 36.734375 C-38.17179768 35.7339404 -39.96452466 34.69294134 -41.75976562 33.6484375 C-45.08150973 31.73083427 -45.08150973 31.73083427 -48.77734375 31.76171875 C-51.68658125 34.08795429 -54.39989949 36.54020481 -57.05859375 39.1484375 C-57.62126953 39.66986328 -58.18394531 40.19128906 -58.76367188 40.72851562 C-61.92635698 43.74354796 -61.92635698 43.74354796 -62.79296875 47.8515625 C-61.12257003 51.81564304 -59.09007391 55.53220898 -57.0234375 59.30078125 C-55.19916372 63.63552353 -55.14419396 66.66346497 -56.734375 71.08203125 C-57.17136719 71.97019531 -57.60835938 72.85835937 -58.05859375 73.7734375 C-59.55401163 76.85857889 -60.85549628 79.68715734 -61.87890625 82.97265625 C-64.47973682 87.65741591 -67.33984077 88.28422502 -72.30859375 89.7109375 C-73.85163779 90.19767806 -75.39460995 90.68464656 -76.9375 91.171875 C-78.19433594 91.55601563 -79.45117188 91.94015625 -80.74609375 92.3359375 C-81.73609375 92.8309375 -81.73609375 92.8309375 -82.74609375 93.3359375 C-82.74609375 100.5959375 -82.74609375 107.8559375 -82.74609375 115.3359375 C-79.56984375 116.1815625 -76.39359375 117.0271875 -73.12109375 117.8984375 C-62.95981745 121.03844443 -62.95981745 121.03844443 -60.1171875 126.0703125 C-58.53947313 129.72389728 -57.59535993 133.4555887 -56.74609375 137.3359375 C-56.25109375 138.3259375 -56.25109375 138.3259375 -55.74609375 139.3359375 C-55.11556787 145.58602528 -56.85906301 149.44315946 -59.74609375 154.7734375 C-60.3184375 155.87075195 -60.3184375 155.87075195 -60.90234375 156.99023438 C-61.83755932 158.77883415 -62.79008754 160.55836346 -63.74609375 162.3359375 C-61.56688961 164.71857575 -59.34867857 167.06104216 -57.12109375 169.3984375 C-56.19490234 170.41260742 -56.19490234 170.41260742 -55.25 171.44726562 C-51.64559938 175.36388197 -51.64559938 175.36388197 -46.66015625 176.4609375 C-42.47593735 174.84558222 -38.66465253 172.78175453 -34.74609375 170.61328125 C-31.39783395 169.18765501 -29.34777685 168.92774675 -25.74609375 169.3359375 C-23.25390625 170.359375 -23.25390625 170.359375 -20.87109375 171.7109375 C-17.57852044 173.51365863 -15.02422405 174.56497115 -11.30859375 175.0234375 C-7.74609375 176.3359375 -7.74609375 176.3359375 -6.69140625 178.32421875 C-5.89064616 180.97828441 -5.33129833 183.6255163 -4.74609375 186.3359375 C-3.75609375 189.6359375 -2.76609375 192.9359375 -1.74609375 196.3359375 C5.51390625 196.3359375 12.77390625 196.3359375 20.25390625 196.3359375 C22.19085851 190.27504931 22.19085851 190.27504931 24.05053711 184.19042969 C25.27109721 180.63957279 26.17322768 178.06905293 29.35131836 175.91308594 C31.62485744 174.90700791 33.88760906 174.0938816 36.25390625 173.3359375 C37.55908203 172.70945313 37.55908203 172.70945313 38.890625 172.0703125 C39.56738281 171.74546875 40.24414062 171.420625 40.94140625 171.0859375 C41.62589844 170.75078125 42.31039062 170.415625 43.015625 170.0703125 C47.48797 168.60294625 50.44319417 168.97025072 54.7265625 170.90234375 C56.54282742 171.88888328 58.33644414 172.90989081 60.13085938 173.93554688 C62.73725303 175.34865187 64.80119764 176.32268409 67.7890625 176.41015625 C71.43013884 174.82331632 73.86066712 172.38752891 76.62890625 169.5859375 C77.18707031 169.06 77.74523437 168.5340625 78.3203125 167.9921875 C81.42207682 164.96116451 81.42207682 164.96116451 82.33203125 160.8828125 C80.6683925 156.95276733 78.68746596 153.22679988 76.60546875 149.5078125 C75.22279306 146.90112883 74.22829226 144.91936734 74.359375 141.93359375 C74.65457031 141.07636719 74.94976562 140.21914062 75.25390625 139.3359375 C75.44887695 138.70413574 75.64384766 138.07233398 75.84472656 137.42138672 C80.10031043 124.08258294 80.10031043 124.08258294 84.58984375 120.44140625 C87.16747804 119.42092327 89.53122874 118.86808063 92.25390625 118.3359375 C95.55390625 117.3459375 98.85390625 116.3559375 102.25390625 115.3359375 C102.25390625 108.0759375 102.25390625 100.8159375 102.25390625 93.3359375 C96.14266672 91.23798331 96.14266672 91.23798331 90.01831055 89.17895508 C83.76691619 86.95540207 83.76691619 86.95540207 81.27734375 83.94921875 C80.77074219 82.65564453 80.77074219 82.65564453 80.25390625 81.3359375 C79.89167969 80.41554688 79.52945313 79.49515625 79.15625 78.546875 C78.83785156 77.61101562 78.51945313 76.67515625 78.19140625 75.7109375 C77.09586336 72.49910493 76.15191813 70.18295532 74.25390625 67.3359375 C74.5866349 61.11916532 77.76622806 56.59765268 80.85546875 51.359375 C82.46035845 48.58473342 82.46035845 48.58473342 82.01416016 46.35131836 C80.62704157 42.67416232 77.73641906 40.26491917 75.00390625 37.5234375 C74.14345703 36.60788086 74.14345703 36.60788086 73.265625 35.67382812 C70.04487866 32.24252508 70.04487866 32.24252508 65.6640625 31.2578125 C62.95564948 32.46935544 60.47253295 33.84899236 57.94140625 35.3984375 C53.29316912 37.9642644 49.56896028 39.63602266 44.25390625 38.3359375 C40.1293526 36.91069907 36.17260661 35.2547494 32.25390625 33.3359375 C31.37605469 32.97371094 30.49820313 32.61148438 29.59375 32.23828125 C25.98124637 29.30123739 25.26803867 25.58102969 24.00390625 21.2109375 C23.50079727 19.56185806 22.99569517 17.91338492 22.48828125 16.265625 C22.16682129 15.17096924 22.16682129 15.17096924 21.83886719 14.05419922 C21.39185759 12.32672286 21.39185759 12.32672286 20.25390625 11.3359375 C18.61917743 11.24893408 16.9807657 11.22892687 15.34375 11.23828125 C14.35439453 11.24150391 13.36503906 11.24472656 12.34570312 11.24804688 C11.30478516 11.25642578 10.26386719 11.26480469 9.19140625 11.2734375 C7.62422852 11.28020508 7.62422852 11.28020508 6.02539062 11.28710938 C3.43483965 11.29893837 0.84440066 11.31542061 -1.74609375 11.3359375 Z " fill="#020001" transform="translate(393.74609375,26.6640625)"/>
<path d="M0 0 C7.78989296 6.71842069 12.17971395 13.90823042 15.0625 23.75 C15.25328125 24.39453125 15.4440625 25.0390625 15.640625 25.703125 C17.89668657 36.64920149 15.27351363 46.62093186 9.67578125 56.09765625 C3.63547702 64.68647241 -4.97326942 71.63704087 -15.234375 74.359375 C-28.65993065 76.2994842 -39.742426 74.74029102 -51.1875 67.125 C-58.74375128 61.02005376 -64.50084823 52.14963061 -66.625 42.6875 C-67.73103118 28.75150709 -66.69470123 17.7495877 -57.59765625 6.55859375 C-42.26139402 -10.14891075 -19.02006525 -13.87688434 0 0 Z " fill="#C5CDDE" transform="translate(428.9375,97.25)"/>
<path d="M0 0 C8.84897632 6.16850971 15.71513892 14.48703969 18.33984375 25.0390625 C20.22033461 36.96624989 19.07792573 48.94931084 12.01171875 59.02734375 C4.78101171 67.76596206 -3.24622647 72.9928913 -14.23828125 75.71484375 C-27.68789919 76.97758081 -38.72737428 74.2947697 -49.23828125 65.71484375 C-56.96603458 58.62587648 -61.72637581 49.22607158 -62.44140625 38.734375 C-62.6232899 26.29050191 -59.79329982 15.75541926 -51.12890625 6.44921875 C-37.05565504 -6.65346341 -17.04019153 -9.78398432 0 0 Z " fill="#FDB33A" transform="translate(151.23828125,32.28515625)"/>
<path d="M0 0 C1.87225502 -0.01902626 1.87225502 -0.01902626 3.78233337 -0.03843689 C5.1459876 -0.03638536 6.5096407 -0.03339727 7.87329102 -0.02954102 C9.27189895 -0.03410202 10.67050463 -0.03940736 12.06910706 -0.04542542 C15.0004283 -0.0543611 17.93147718 -0.05192875 20.86279297 -0.04199219 C24.61690631 -0.03050581 28.37007857 -0.05070505 32.12406826 -0.07990932 C35.01261861 -0.09826868 37.90094337 -0.09797944 40.78953743 -0.0922718 C42.17341494 -0.09211853 43.55730768 -0.09816796 44.94112968 -0.11056328 C46.87736725 -0.12546205 48.81375953 -0.11217192 50.75 -0.09765625 C51.85125717 -0.09749008 52.95251434 -0.09732391 54.08714294 -0.09715271 C56.93969727 0.40405273 56.93969727 0.40405273 59.29420471 2.04380798 C61.42256177 5.09665897 61.44670292 6.96208475 61.45727539 10.66967773 C61.46988403 11.93779297 61.48249268 13.2059082 61.4954834 14.51245117 C61.48832356 15.89299069 61.48011957 17.27352512 61.47094727 18.65405273 C61.47364289 20.07365179 61.4775259 21.49324905 61.48254395 22.9128418 C61.48843584 25.88535168 61.47988681 28.85738015 61.46118164 31.82983398 C61.43839127 35.6366406 61.45151614 39.44231923 61.4754715 43.24908447 C61.4899384 46.1796923 61.48531962 49.11003348 61.47496033 52.04064941 C61.47229546 53.44405247 61.47555444 54.84747988 61.48487854 56.25085449 C61.49505667 58.21337408 61.47678767 60.17597875 61.45727539 62.13842773 C61.45409302 63.25443359 61.45091064 64.37043945 61.44763184 65.52026367 C60.93969727 68.40405273 60.93969727 68.40405273 59.29420471 70.76429749 C56.26120497 72.87657675 54.43171262 72.90520619 50.75 72.90576172 C49.49867783 72.91514267 48.24735565 72.92452362 46.95811462 72.93418884 C45.59649978 72.92371162 44.23489155 72.91234276 42.87329102 72.90014648 C41.47371852 72.9003015 40.07414558 72.90179083 38.67457581 72.90455627 C35.74493375 72.90593941 32.81578179 72.893396 29.88623047 72.87060547 C26.13103051 72.84219401 22.37664306 72.84496601 18.62138271 72.85769558 C15.73286496 72.8646494 12.8445351 72.85686748 9.95604134 72.84443855 C8.57135806 72.83992295 7.18665463 72.83958822 5.80196953 72.84350395 C3.86794588 72.84641356 1.93392598 72.82775844 0 72.80810547 C-1.10046158 72.80270248 -2.20092316 72.7972995 -3.33473206 72.79173279 C-6.06030273 72.40405273 -6.06030273 72.40405273 -7.91481018 71.27577209 C-9.60620981 68.51204795 -9.44183094 66.27808076 -9.44848633 63.05249023 C-9.45794281 61.74103027 -9.46739929 60.42957031 -9.47714233 59.07836914 C-9.47177266 57.6452606 -9.46561972 56.21215482 -9.45874023 54.77905273 C-9.46076105 53.31078954 -9.46367255 51.84252733 -9.46743774 50.37426758 C-9.47186079 47.29751019 -9.46543093 44.22101412 -9.45141602 41.14428711 C-9.4343238 37.19964802 -9.44416513 33.25562126 -9.46213341 29.31100464 C-9.47297196 26.27924991 -9.46952465 23.24764044 -9.46175003 20.21588135 C-9.4597482 18.76141284 -9.46220672 17.30693116 -9.46918869 15.85247803 C-9.4768034 13.82019298 -9.46314015 11.78786172 -9.44848633 9.75561523 C-9.44609955 8.59884277 -9.44371277 7.44207031 -9.44125366 6.25024414 C-9.06030273 3.40405273 -9.06030273 3.40405273 -7.91481018 1.53233337 C-5.23346368 -0.09899539 -3.12799755 0.01535767 0 0 Z " fill="#FDB43A" transform="translate(105.060302734375,401.595947265625)"/>
<path d="M0 0 C12.75252525 -0.06961864 25.50500501 -0.1228716 38.25768185 -0.15543652 C44.17975024 -0.17106881 50.10168826 -0.19226276 56.02368164 -0.22631836 C61.74249611 -0.25899842 67.46118546 -0.27687133 73.18008614 -0.28463173 C75.35808849 -0.2901597 77.53608427 -0.30095442 79.71403313 -0.31719017 C82.77296434 -0.33907913 85.83138348 -0.34196211 88.89038086 -0.34057617 C90.23042931 -0.35675491 90.23042931 -0.35675491 91.59754944 -0.3732605 C99.54015804 -0.33451399 106.80853213 1.19593013 112.8125 6.6875 C113.52019531 7.31011719 114.22789062 7.93273437 114.95703125 8.57421875 C120.26949879 14.8821391 121.58639814 20.63716127 121.390625 28.75 C121.38496521 29.64871826 121.37930542 30.54743652 121.37347412 31.47338867 C121.35125919 34.31615708 121.30109249 37.15761895 121.25 40 C121.22991569 41.93878375 121.21166832 43.87758746 121.1953125 45.81640625 C121.15486117 50.54516705 121.07654632 55.27113833 121 60 C111.1 60 101.2 60 91 60 C90.6875 47.6875 90.6875 47.6875 90.61206055 43.81518555 C90.57894775 42.8075415 90.54583496 41.79989746 90.51171875 40.76171875 C90.48553467 39.73006592 90.45935059 38.69841309 90.43237305 37.63549805 C89.92332805 34.53265181 89.51456316 33.82643068 87 32 C84.06190999 31.55892369 84.06190999 31.55892369 80.66772461 31.64697266 C79.35883774 31.64331696 78.04995087 31.63966125 76.70140076 31.63589478 C75.65147351 31.64309477 75.65147351 31.64309477 74.58033562 31.65044022 C72.38012593 31.66420146 70.18081626 31.65772597 67.98060608 31.64559937 C61.72537389 31.61468509 55.47034877 31.61938651 49.21508789 31.63964844 C45.38585434 31.65064108 41.55729203 31.63721057 37.72815132 31.60975266 C36.27668225 31.60435111 34.82514441 31.60827533 33.37373161 31.62215042 C23.56971732 31.71470128 15.35002239 30.95606247 7.86753845 24.02456665 C2.51946495 18.39641947 -0.1652618 13.11400952 -0.06640625 5.26953125 C-0.05681885 4.28186768 -0.04723145 3.2942041 -0.03735352 2.27661133 C-0.02502686 1.52532959 -0.0127002 0.77404785 0 0 Z " fill="#7575FD" transform="translate(96,229)"/>
<path d="M0 0 C3.96 0 7.92 0 12 0 C12 69.3 12 138.6 12 210 C1 210 1 210 -1.640625 208.640625 C-3.78399828 204.47706081 -3.67882112 200.3701563 -3.75 195.75 C-3.77964844 194.81414062 -3.80929687 193.87828125 -3.83984375 192.9140625 C-3.91039804 190.60928908 -3.96316252 188.30551832 -4 186 C-5.32 185.34 -6.64 184.68 -8 184 C-8.11613204 180.89614789 -8.18722029 177.79285338 -8.25 174.6875 C-8.28351563 173.80642578 -8.31703125 172.92535156 -8.3515625 172.01757812 C-8.36445313 171.17001953 -8.37734375 170.32246094 -8.390625 169.44921875 C-8.4220459 168.27879028 -8.4220459 168.27879028 -8.45410156 167.0847168 C-8 165 -8 165 -6.00878906 163.52075195 C-3.79231425 162.1795705 -3.79231425 162.1795705 -3.48242188 159.77929688 C-3.47791016 158.93431641 -3.47339844 158.08933594 -3.46875 157.21875 C-3.46359375 156.29449219 -3.4584375 155.37023437 -3.453125 154.41796875 C-3.46859375 153.45503906 -3.4840625 152.49210938 -3.5 151.5 C-3.48453125 150.53707031 -3.4690625 149.57414063 -3.453125 148.58203125 C-3.45828125 147.65777344 -3.4634375 146.73351562 -3.46875 145.78125 C-3.47551758 144.5137793 -3.47551758 144.5137793 -3.48242188 143.22070312 C-4.17092307 140.26664326 -5.62440599 139.76480188 -8 138 C-8.45410156 135.9152832 -8.45410156 135.9152832 -8.390625 133.55078125 C-8.37773437 132.70322266 -8.36484375 131.85566406 -8.3515625 130.98242188 C-8.31804687 130.10134766 -8.28453125 129.22027344 -8.25 128.3125 C-8.23195313 127.41982422 -8.21390625 126.52714844 -8.1953125 125.60742188 C-8.14817759 123.40386496 -8.08240657 121.20247399 -8 119 C-6.02 118.505 -6.02 118.505 -4 118 C-3.99761165 117.41008616 -3.99522329 116.82017233 -3.99276257 116.21238232 C-3.93365509 101.86581511 -3.85813248 87.51940403 -3.76428509 73.17302227 C-3.71929816 66.23523666 -3.67989032 59.29750272 -3.65356445 52.35961914 C-3.62815795 45.66813538 -3.5872731 38.97691196 -3.53681374 32.28556252 C-3.52008796 29.72864439 -3.50860941 27.17168655 -3.50238609 24.6147213 C-3.49280715 21.04197331 -3.46482182 17.46981981 -3.43237305 13.8972168 C-3.43380814 12.83266769 -3.43524323 11.76811859 -3.4367218 10.67131042 C-3.42418365 9.69955872 -3.41164551 8.72780701 -3.39872742 7.72660828 C-3.39411845 6.88132411 -3.38950949 6.03603994 -3.38476086 5.16514111 C-3 3 -3 3 0 0 Z " fill="#FD6396" transform="translate(341,264)"/>
<path d="M0 0 C0.92135742 0.00684814 1.84271484 0.01369629 2.79199219 0.02075195 C9.99888799 0.19007976 16.13396857 1.31481418 22.6875 4.4375 C23.85925781 4.9634375 23.85925781 4.9634375 25.0546875 5.5 C37.5948887 11.74840475 46.49345132 22.63219364 51.38671875 35.66015625 C53.03965533 40.89859189 53.13065354 45.91893072 53.0625 51.375 C53.07410156 52.29990234 53.08570313 53.22480469 53.09765625 54.17773438 C53.03953444 68.00103833 47.45660486 79.6356454 38.125 89.75 C32.37520398 95.22641615 25.92719711 98.32593299 18.6875 101.4375 C17.42873047 101.994375 17.42873047 101.994375 16.14453125 102.5625 C4.48154887 106.71593093 -9.14378098 105.2909967 -20.3125 100.4375 C-24.17526208 98.34496393 -27.75534701 96.01113553 -31.3125 93.4375 C-32.364375 92.695 -33.41625 91.9525 -34.5 91.1875 C-45.47208079 80.45924322 -51.28788397 67.18716492 -51.625 51.875 C-51.47639743 37.74289576 -45.74639644 24.92616901 -36.125 14.625 C-25.88179034 5.009994 -13.9673616 -0.16005869 0 0 Z M-30.71484375 24.3828125 C-39.24879273 35.35801339 -41.51426032 46.35083789 -40.03515625 59.99609375 C-38.03963748 70.65786548 -32.29328058 79.65609888 -23.625 86.0625 C-12.43088969 93.46505682 -1.77631025 95.24109123 11.4296875 92.96484375 C21.70640723 89.9110854 31.31681282 83.34802362 36.63671875 74.01953125 C42.61340925 62.54763496 44.69222212 52.61639089 41.125 39.75 C37.24287935 28.43170458 30.2300053 20.19001789 19.6875 14.6875 C2.14244111 6.49453707 -17.33440857 10.14830699 -30.71484375 24.3828125 Z " fill="#050203" transform="translate(402.3125,78.5625)"/>
<path d="M0 0 C2.19407556 1.09703778 4.37724272 2.2232661 6.48828125 3.47265625 C15.59298027 8.59798475 19.43825127 8.22921675 31 9 C31 38.37 31 67.74 31 98 C20.77 98 10.54 98 0 98 C0 65.66 0 33.32 0 0 Z " fill="#7373F8" transform="translate(96,261)"/>
<path d="M0 0 C8.84897632 6.16850971 15.71513892 14.48703969 18.33984375 25.0390625 C20.22033461 36.96624989 19.07792573 48.94931084 12.01171875 59.02734375 C4.78101171 67.76596206 -3.24622647 72.9928913 -14.23828125 75.71484375 C-27.68789919 76.97758081 -38.72737428 74.2947697 -49.23828125 65.71484375 C-56.96603458 58.62587648 -61.72637581 49.22607158 -62.44140625 38.734375 C-62.6232899 26.29050191 -59.79329982 15.75541926 -51.12890625 6.44921875 C-37.05565504 -6.65346341 -17.04019153 -9.78398432 0 0 Z M-45.23828125 16.71484375 C-50.29977178 24.15008542 -52.11850023 30.74918471 -51.23828125 39.71484375 C-49.17055379 48.69575639 -45.2004895 55.31696801 -37.57421875 60.5390625 C-30.23242371 64.69424729 -23.59611496 66.20515627 -15.23828125 64.71484375 C-6.10013289 61.67613417 0.38829467 56.76686724 5.0703125 48.3671875 C8.53641844 40.79932298 8.89089683 33.19257079 6.82421875 25.15234375 C3.99262737 17.76095968 -1.86549071 11.43026142 -9.05078125 8.15234375 C-22.80712415 2.91541175 -35.35085951 5.68573714 -45.23828125 16.71484375 Z " fill="#010100" transform="translate(151.23828125,32.28515625)"/>
<path d="M0 0 C3.96 0 7.92 0 12 0 C12 56.76 12 113.52 12 172 C1 172 1 172 -1.65617466 170.41751099 C-3.4340194 167.21920904 -3.50056732 164.98027009 -3.50120544 161.31982422 C-3.50673984 160.6495262 -3.51227424 159.97922817 -3.51797634 159.28861809 C-3.53158476 157.04359686 -3.51661402 154.79968707 -3.50170898 152.5546875 C-3.50549212 150.94483976 -3.51099212 149.33499527 -3.51808167 147.72515869 C-3.53205434 143.35322741 -3.52085392 138.98168887 -3.50437045 134.60977936 C-3.49052979 130.03656193 -3.49697891 125.46336753 -3.50050354 120.89013672 C-3.50320644 113.20989648 -3.48972319 105.52981245 -3.46655273 97.84960938 C-3.43994247 88.96769701 -3.43819559 80.08604585 -3.4499411 71.20410728 C-3.46071689 62.66323883 -3.45453338 54.12246495 -3.44038582 45.581604 C-3.43462428 41.94531013 -3.43471001 38.30908543 -3.43945122 34.67279053 C-3.44422034 30.39144472 -3.43412212 26.11038526 -3.41249657 21.82909393 C-3.40692763 20.2569246 -3.40646439 18.68472775 -3.41144943 17.11255646 C-3.41739676 14.96811083 -3.40490906 12.82454234 -3.38768005 10.68017578 C-3.38525016 9.47966583 -3.38282026 8.27915588 -3.38031673 7.04226685 C-3 4 -3 4 0 0 Z " fill="#55E898" transform="translate(260,302)"/>
<path d="M0 0 C3.96 0 7.92 0 12 0 C12 39.93 12 79.86 12 121 C8.37 121 4.74 121 1 121 C-2 118 -2 118 -2.37473011 115.82482815 C-2.37456237 114.97476727 -2.37439463 114.1247064 -2.3742218 113.24888611 C-2.38123611 112.27161057 -2.38825043 111.29433502 -2.39547729 110.28744507 C-2.38783356 109.21668732 -2.38018982 108.14592957 -2.37231445 107.04272461 C-2.37596512 105.91408493 -2.37961578 104.78544525 -2.38337708 103.62260437 C-2.39150017 99.88236567 -2.37785825 96.14255776 -2.36328125 92.40234375 C-2.36276289 89.81067403 -2.36327965 87.21900392 -2.36479187 84.62733459 C-2.36470207 79.19249138 -2.35459304 73.75780685 -2.33618164 68.32299805 C-2.31500326 62.03531974 -2.31150635 55.74782404 -2.3177436 49.46011728 C-2.32343327 43.41540037 -2.31769289 37.37076479 -2.30657005 31.32605171 C-2.30271028 28.75153424 -2.30157303 26.17701125 -2.3031559 23.60249138 C-2.30352509 20.01084659 -2.29094771 16.4194835 -2.2746582 12.82788086 C-2.27713562 11.75509888 -2.27961304 10.68231689 -2.28216553 9.57702637 C-2.27508072 8.60257065 -2.26799591 7.62811493 -2.26069641 6.62413025 C-2.25864354 5.7744464 -2.25659067 4.92476255 -2.25447559 4.04933071 C-2 2 -2 2 0 0 Z " fill="#9494FB" transform="translate(179,353)"/>
<path d="M0 0 C-0.66 0 -1.32 0 -2 0 C-1.67 9.57 -1.34 19.14 -1 29 C5.11323994 30.8100892 5.11323994 30.8100892 11.2355957 32.58886719 C12.38161255 32.93933105 12.38161255 32.93933105 13.55078125 33.296875 C14.33106689 33.52729492 15.11135254 33.75771484 15.9152832 33.99511719 C20.31304528 36.11494254 21.89529621 40.58736124 23.75 44.875 C24.19859375 45.88304687 24.6471875 46.89109375 25.109375 47.9296875 C27.050024 54.61981956 23.84003913 59.95963528 20.9375 65.875 C20.56044922 66.65875 20.18339844 67.4425 19.79492188 68.25 C18.87006766 70.16995053 17.93596022 72.085439 17 74 C19.64 76.64 22.28 79.28 25 82 C24 85 24 85 22.25 86.25 C19.22731125 87.25756292 18.0419555 87.04527223 15 86 C12.52217198 84.00834227 10.36875023 81.74519952 8.1875 79.4375 C7.2912793 78.51420898 7.2912793 78.51420898 6.37695312 77.57226562 C4.9087379 76.05706751 3.45310447 74.52969562 2 73 C2.86625 71.38931641 2.86625 71.38931641 3.75 69.74609375 C4.50074862 68.31028702 5.25070697 66.87406688 6 65.4375 C6.3815625 64.73302734 6.763125 64.02855469 7.15625 63.30273438 C9.53554824 58.69284403 10.63630959 55.30257992 10 50 C9.03787872 47.10404436 9.03787872 47.10404436 7.625 44.4375 C6.15580185 41.47762419 5.03023818 39.17631526 4.46875 35.90234375 C2.45193664 31.91699182 0.09550521 31.43852849 -4.01611328 30.06689453 C-5.0420459 29.75606934 -6.06797852 29.44524414 -7.125 29.125 C-10.38375 28.09375 -13.6425 27.0625 -17 26 C-17 18.74 -17 11.48 -17 4 C-3.60714286 -1.49107143 -3.60714286 -1.49107143 0 0 Z " fill="#FB6396" transform="translate(328,116)"/>
<path d="M0 0 C4.5548408 -0.11540982 9.10452448 -0.21473472 13.65966797 -0.2746582 C15.20574212 -0.29965732 16.75169982 -0.33366902 18.29736328 -0.37719727 C33.95442579 -0.80678097 33.95442579 -0.80678097 39.625 3.6652832 C41.29966536 5.2908861 42.77186529 6.7542811 44 8.75 C44.391875 9.34296875 44.78375 9.9359375 45.1875 10.546875 C46 13 46 13 46 22 C30.82 22 15.64 22 0 22 C0 14.74 0 7.48 0 0 Z " fill="#1E3158" transform="translate(187,300)"/>
<path d="M0 0 C4.25120117 -0.09247326 8.49883367 -0.17189879 12.75024414 -0.21972656 C14.19242252 -0.23968751 15.6345216 -0.26686663 17.07641602 -0.30175781 C33.08030577 -0.67897255 33.08030577 -0.67897255 40 4 C45.69325975 9.83924077 46 13.53238504 46 22 C30.82 22 15.64 22 0 22 C0 14.74 0 7.48 0 0 Z " fill="#1E3157" transform="translate(96,369)"/>
<path d="M0 0 C1.33804688 0.04060547 1.33804688 0.04060547 2.703125 0.08203125 C3.37859375 0.11683594 4.0540625 0.15164063 4.75 0.1875 C4.74666908 1.43324799 4.74666908 1.43324799 4.74327087 2.7041626 C4.72323148 10.53190369 4.70800722 18.35963616 4.69818783 26.187397 C4.69296988 30.21169377 4.68589196 34.23596934 4.67456055 38.26025391 C4.66369304 42.14410358 4.65771495 46.02793286 4.65512276 49.91179657 C4.65327548 51.39335196 4.64966825 52.87490624 4.64426994 54.35645294 C4.63700826 56.43199574 4.63601123 58.50745434 4.63647461 60.58300781 C4.63314369 62.35505585 4.63314369 62.35505585 4.62974548 64.16290283 C4.73073076 66.70284723 5.00065933 68.77452236 5.75 71.1875 C3.81318839 71.26857583 1.8754066 71.32672475 -0.0625 71.375 C-1.14144531 71.40980469 -2.22039062 71.44460938 -3.33203125 71.48046875 C-6.25 71.1875 -6.25 71.1875 -7.90711975 70.0604248 C-9.85572974 67.34268435 -9.63828757 65.25120128 -9.65405273 61.92773438 C-9.66673691 60.63629517 -9.67942108 59.34485596 -9.69248962 58.01428223 C-9.69043833 56.60326986 -9.68745043 55.19225859 -9.68359375 53.78125 C-9.68815411 52.33540603 -9.69345925 50.88956422 -9.69947815 49.44372559 C-9.70841359 46.41405427 -9.70598103 43.3846465 -9.69604492 40.35498047 C-9.68454798 36.47074466 -9.7047743 32.58741696 -9.73396206 28.70330048 C-9.75229907 25.71785701 -9.75203682 22.73263225 -9.74632454 19.74714661 C-9.74617105 18.31499456 -9.75223829 16.88282794 -9.76461601 15.45072937 C-9.77947589 13.44962534 -9.76624492 11.44837204 -9.75170898 9.44726562 C-9.75154282 8.30825806 -9.75137665 7.16925049 -9.75120544 5.99572754 C-9.25 3.1875 -9.25 3.1875 -7.54676819 1.3079834 C-4.81976773 -0.02238975 -3.01838893 -0.11914693 0 0 Z " fill="#FDDE5A" transform="translate(105.25,402.8125)"/>
<path d="M0 0 C5.75 1.875 5.75 1.875 8 3 C6.34908222 7.29238623 3.26245434 9.8793915 0 13 C1.79126832 17.81005553 4.19391068 22.27099528 6.69726562 26.74023438 C8.92715126 30.98211661 9.24053462 33.4069962 8 38 C7.8040625 39.0621875 7.608125 40.124375 7.40625 41.21875 C5.07020529 49.67684292 5.07020529 49.67684292 1.13134766 52.19433594 C-3.72438437 54.46463328 -8.75617136 55.93698772 -14 57 C-14.66 56.67 -15.32 56.34 -16 56 C-15.55914062 55.30261719 -15.11828125 54.60523438 -14.6640625 53.88671875 C-12.95824588 50.92756738 -11.65636432 47.97660513 -10.375 44.8125 C-8.05298013 39.10596026 -8.05298013 39.10596026 -7 37 C-6.44325481 31.76812054 -8.05275164 28.32083996 -10.5625 23.875 C-14.07326049 17.64687121 -14.07326049 17.64687121 -13.7734375 14.99951172 C-12.87608415 12.67964937 -11.83849273 11.49368227 -10.05859375 9.765625 C-9.18364258 8.90517578 -9.18364258 8.90517578 -8.29101562 8.02734375 C-7.67935547 7.44082031 -7.06769531 6.85429688 -6.4375 6.25 C-5.82197266 5.64800781 -5.20644531 5.04601563 -4.57226562 4.42578125 C-3.05485187 2.94365619 -1.52829404 1.4709033 0 0 Z " fill="#FC6497" transform="translate(345,58)"/>
<path d="M0 0 C0.66 0.66 1.32 1.32 2 2 C1.96062187 7.2081514 0.68086611 10.01184613 -2.94915771 13.73153687 C-3.49702942 14.26098907 -4.04490112 14.79044128 -4.609375 15.3359375 C-5.17319885 15.90075836 -5.73702271 16.46557922 -6.31793213 17.04751587 C-7.5078451 18.23276646 -8.70510492 19.41068183 -9.90917969 20.58154297 C-11.7479824 22.37303432 -13.55855609 24.1898247 -15.3671875 26.01171875 C-16.52967286 27.16305293 -17.69368561 28.3128474 -18.859375 29.4609375 C-19.66903717 30.27333389 -19.66903717 30.27333389 -20.49505615 31.10214233 C-23.51492195 34.01063844 -25.72396727 35.83067996 -30 36 C-31.8515625 34.953125 -31.8515625 34.953125 -33.625 33.25 C-34.29789062 32.60675781 -34.97078125 31.96351563 -35.6640625 31.30078125 C-36.43492187 30.54152344 -37.20578125 29.78226563 -38 29 C-38.98509571 28.09560044 -39.97218082 27.19336441 -40.9609375 26.29296875 C-41.9753084 25.34258475 -42.98833723 24.39076624 -44 23.4375 C-44.94875 22.54933594 -45.8975 21.66117188 -46.875 20.74609375 C-49 18 -49 18 -49.38671875 14.78125 C-49 12 -49 12 -47.8125 10.0625 C-46 9 -46 9 -43.734375 9.08203125 C-39.42000309 10.53042753 -36.95612456 13.91210848 -34.01757812 17.2265625 C-32.485087 18.9260028 -32.485087 18.9260028 -30 21 C-25.97594255 20.83217845 -24.07653465 18.34067718 -21.4453125 15.52734375 C-20.58292969 14.62822266 -19.72054688 13.72910156 -18.83203125 12.80273438 C-17.02906925 10.89440447 -15.23216437 8.98033342 -13.44140625 7.06054688 C-12.57644531 6.16271484 -11.71148437 5.26488281 -10.8203125 4.33984375 C-10.03930176 3.50831787 -9.25829102 2.67679199 -8.45361328 1.82006836 C-5.39348448 -0.44990778 -3.72919873 -0.52330015 0 0 Z " fill="#040505" transform="translate(427,113)"/>
<path d="M0 0 C2.97 0 5.94 0 9 0 C9 23.43 9 46.86 9 71 C6.03 71 3.06 71 0 71 C0 47.57 0 24.14 0 0 Z " fill="#FEDD5A" transform="translate(96,147)"/>
<path d="M0 0 C2 1 4 2 6 3 C6 34.02 6 65.04 6 97 C4.02 97 2.04 97 0 97 C0 64.99 0 32.98 0 0 Z " fill="#9494FB" transform="translate(96,261)"/>
<path d="M0 0 C0.8566626 0.12052734 1.7133252 0.24105469 2.59594727 0.36523438 C-3.1404185 7.36769106 -9.61729456 13.60564317 -16.10791016 19.89770508 C-17.58200767 21.32924146 -19.04628764 22.77026283 -20.50952148 24.21289062 C-21.81119263 25.48144897 -21.81119263 25.48144897 -23.13916016 26.77563477 C-27.15800385 31.37064124 -28.86119802 35.4065212 -28.64233398 41.39648438 C-28.30121215 44.21493362 -27.45474978 46.73849176 -26.40405273 49.36523438 C-32.7793952 48.87482342 -32.7793952 48.87482342 -35.77905273 46.42773438 C-37.63879669 44.06729012 -38.34041124 42.69935224 -38.90405273 39.74023438 C-37.57782244 30.78817992 -25.48288735 22.11901133 -19.24267578 15.79882812 C-17.96720516 14.50157278 -16.6980493 13.1980806 -15.43505859 11.88867188 C-13.59395889 9.98082607 -11.7340569 8.09327812 -9.86889648 6.20898438 C-9.30935776 5.62161499 -8.74981903 5.03424561 -8.17332458 4.42907715 C-5.42217744 1.69213018 -3.92114205 0.42071495 0 0 Z " fill="#F9DA59" transform="translate(54.404052734375,122.634765625)"/>
<path d="M0 0 C4.95 0 9.9 0 15 0 C11.81278456 14.48734292 11.81278456 14.48734292 10 17 C7.5390625 18.1953125 7.5390625 18.1953125 4.625 19.125 C0.64278341 20.40948721 0.64278341 20.40948721 -3.1640625 22.1171875 C-5 23 -5 23 -8 23 C-7.70109863 22.4337793 -7.40219727 21.86755859 -7.09423828 21.28417969 C-6.01413981 19.0295163 -5.23364204 16.83867438 -4.4921875 14.453125 C-4.22792969 13.60878906 -3.96367187 12.76445313 -3.69140625 11.89453125 C-3.42199219 11.02183594 -3.15257812 10.14914063 -2.875 9.25 C-2.59785156 8.36183594 -2.32070313 7.47367188 -2.03515625 6.55859375 C-1.35373326 4.37334072 -0.67645978 2.18679452 0 0 Z " fill="#F96395" transform="translate(392,38)"/>
<path d="M0 0 C0.86496094 0.29261719 1.72992188 0.58523437 2.62109375 0.88671875 C4.74307272 1.58586789 6.88046049 2.24136176 9.03515625 2.83203125 C13.96376112 4.42826328 17.1312754 5.56651448 19.88671875 10.11328125 C21.56520989 14.43695899 23 18.33499088 23 23 C18.05 23 13.1 23 8 23 C6.99636291 20.04285501 5.9969452 17.0844004 5 14.125 C4.71382813 13.28324219 4.42765625 12.44148437 4.1328125 11.57421875 C3.86210937 10.76855469 3.59140625 9.96289062 3.3125 9.1328125 C3.06113281 8.38918457 2.80976563 7.64555664 2.55078125 6.87939453 C2 5 2 5 2 3 C1.01 2.67 0.02 2.34 -1 2 C-0.67 1.34 -0.34 0.68 0 0 Z " fill="#FD6497" transform="translate(384,200)"/>
<path d="M0 0 C0 3.19824738 -0.62543147 4.78248119 -1.875 7.6875 C-6.93714127 20.16334461 -8.16000838 33.24384545 -3 46 C-1.1979633 49.47788036 0.8244423 52.74518391 3 56 C3.42152344 56.64582031 3.84304688 57.29164063 4.27734375 57.95703125 C5.17051092 59.31426393 6.0825271 60.65907807 7 62 C-0.70470145 58.86104756 -6.15805338 50.62037784 -9.8125 43.4375 C-13.65816712 32.3053057 -13.43097245 20.15759322 -8.4375 9.50390625 C-6.61227342 6.32463931 -4.8389167 4.30182435 -2 2 C-1.34 1.34 -0.68 0.68 0 0 Z " fill="#D6DEEB" transform="translate(374,103)"/>
<path d="M0 0 C3.5 -0.3125 3.5 -0.3125 7 0 C9.49057251 2.49057251 9.2565813 3.28472659 9.265625 6.71875 C9.26820313 7.65074219 9.27078125 8.58273437 9.2734375 9.54296875 C9.26570313 10.51878906 9.25796875 11.49460937 9.25 12.5 C9.25773437 13.47582031 9.26546875 14.45164062 9.2734375 15.45703125 C9.27085937 16.38902344 9.26828125 17.32101562 9.265625 18.28125 C9.26336914 19.13783203 9.26111328 19.99441406 9.25878906 20.87695312 C9 23 9 23 7 25 C1.74716057 25.55881271 1.74716057 25.55881271 -0.66870117 23.75195312 C-2.33284727 21.56198203 -2.37396791 20.38510269 -2.36328125 17.65625 C-2.36263672 16.82222656 -2.36199219 15.98820312 -2.36132812 15.12890625 C-2.34521484 14.26136719 -2.32910156 13.39382813 -2.3125 12.5 C-2.31572266 11.63246094 -2.31894531 10.76492188 -2.32226562 9.87109375 C-2.26726394 3.40089591 -2.26726394 3.40089591 0 0 Z " fill="#020807" transform="translate(329,403)"/>
<path d="M0 0 C0.99 0.33 1.98 0.66 3 1 C2.66226563 1.49628906 2.32453125 1.99257813 1.9765625 2.50390625 C-3.83218276 11.35133039 -4.94874999 19.48175933 -4 30 C-2.35756436 36.55198648 0.87288887 41.72646911 5 47 C-0.27670021 45.60322641 -3.10098889 42.43191287 -6 38 C-9.81974977 30.31348816 -11.54961777 22.79800806 -9.3046875 14.3984375 C-7.20160362 8.54868319 -4.27908115 4.47358484 0 0 Z " fill="#F3D456" transform="translate(110,45)"/>
<path d="M0 0 C1.98 0 3.96 0 6 0 C6 7.92 6 15.84 6 24 C4.02 24 2.04 24 0 24 C0 16.08 0 8.16 0 0 Z " fill="#9494FC" transform="translate(187,265)"/>
<path d="M0 0 C1.98 0 3.96 0 6 0 C6 7.26 6 14.52 6 22 C4.02 22 2.04 22 0 22 C0 14.74 0 7.48 0 0 Z " fill="#324872" transform="translate(187,300)"/>
<path d="M0 0 C1.98 0 3.96 0 6 0 C6 6.93 6 13.86 6 21 C4.02 21 2.04 21 0 21 C0 14.07 0 7.14 0 0 Z " fill="#334973" transform="translate(96,370)"/>
<path d="M0 0 C0.66 0.33 1.32 0.66 2 1 C-3.10447761 7.52238806 -3.10447761 7.52238806 -7 9 C-7.99 9.495 -7.99 9.495 -9 10 C-7.61811547 6.78956118 -6.07578097 4.95063635 -3.375 2.75 C-2.74335938 2.22921875 -2.11171875 1.7084375 -1.4609375 1.171875 C-0.73777344 0.59179688 -0.73777344 0.59179688 0 0 Z " fill="#CED6E2" transform="translate(379,97)"/>
<path d="M0 0 C0.99 0.33 1.98 0.66 3 1 C1.35 2.32 -0.3 3.64 -2 5 C-2.66 4.34 -3.32 3.68 -4 3 C-2.1875 1.4375 -2.1875 1.4375 0 0 Z " fill="#E7B341" transform="translate(115,41)"/>
</svg>
